<svg id="Layer_1" data-name="Layer 1" xmlns="http://www.w3.org/2000/svg" viewBox="0 0 257.03 389.33"><defs><style>.cls-1{fill:#ffe149;}.cls-2{fill:red;stroke:red;}.cls-10,.cls-11,.cls-12,.cls-13,.cls-2,.cls-4,.cls-6{stroke-linecap:round;}.cls-11,.cls-2{stroke-linejoin:round;}.cls-3{fill:#ffebca;}.cls-10,.cls-11,.cls-12,.cls-13,.cls-4,.cls-6{fill:none;}.cls-10,.cls-11,.cls-4{stroke:#ffebca;}.cls-10,.cls-12,.cls-13,.cls-4,.cls-6{stroke-miterlimit:10;}.cls-4{stroke-width:19px;}.cls-5{fill:#fff;}.cls-6{stroke:#ffcfd4;stroke-width:12px;}.cls-7{fill:#99d479;}.cls-8{fill:#99d4ff;}.cls-9{fill:#75bc57;}.cls-10{stroke-width:16px;}.cls-11{stroke-width:5px;}.cls-12,.cls-13{stroke:#000;}.cls-12{stroke-width:2px;}.cls-13{stroke-width:4px;}</style></defs><title>boihappy</title><path class="cls-1" d="M261.91,484.77c-39.08-28.11-29.33-100.48-23.52-143.58,6.5-48.25,15-111.41,64.63-150,10.24-8,35.35-27.46,67.26-24.11,7.82.82,26.32,4.09,50.33,25.76,55.48,50.07,63.68,127.91,66.6,160.34,3.43,38,10.83,120-32.89,146.36-6.26,3.77-14.31,5.25-30.42,8.22-57,10.5-104.74-3.59-133.21-12.33C274.49,490.48,266.39,488,261.91,484.77Z" transform="translate(-232.9 -166.72)"/><path class="cls-2" d="M410.45,215a16.43,16.43,0,0,0-9.78-9.19c1.95-.87,4.12-1.73,6.5-2.51a70.05,70.05,0,0,1,7.93-2.11A42.72,42.72,0,0,1,410.45,215Z" transform="translate(-232.9 -166.72)"/><path class="cls-2" d="M328,202.79a16.43,16.43,0,0,0-10.1,8.84c-.67-2-1.32-4.27-1.87-6.72a70.05,70.05,0,0,1-1.33-8.1,42.72,42.72,0,0,1,13.3,6Z" transform="translate(-232.9 -166.72)"/><path class="cls-2" d="M297.79,231.87a16.43,16.43,0,0,0-6.89,11.52c-1.26-1.72-2.57-3.65-3.85-5.82a70.05,70.05,0,0,1-3.76-7.29,42.72,42.72,0,0,1,14.49,1.59Z" transform="translate(-232.9 -166.72)"/><path class="cls-2" d="M282.6,268.68a16.43,16.43,0,0,0-.8,13.4c-1.91-.94-4-2.06-6.1-3.38A70.05,70.05,0,0,1,269,274a42.72,42.72,0,0,1,13.59-5.28Z" transform="translate(-232.9 -166.72)"/><path class="cls-2" d="M433.25,243.49a16.43,16.43,0,0,0-6.51-11.74c2.12-.23,4.45-.39,7-.41a70.05,70.05,0,0,1,8.2.41,42.72,42.72,0,0,1-8.65,11.74Z" transform="translate(-232.9 -166.72)"/><path class="cls-2" d="M443.92,282a16.43,16.43,0,0,0-1.37-13.35c2,.62,4.24,1.39,6.56,2.36a70.05,70.05,0,0,1,7.38,3.6,42.72,42.72,0,0,1-12.57,7.4Z" transform="translate(-232.9 -166.72)"/><path class="cls-3" d="M326,314.16c81.64-3,96.32,9.75,106-2.71,18.65-24-9.73-104.82-62.69-110-26.82-2.65-53.09,14.78-66.2,36.26-14.06,23-17.65,58.28-1.94,71.27C308.43,314.93,317.58,314.46,326,314.16Z" transform="translate(-232.9 -166.72)"/><path class="cls-4" d="M298.26,489.44a64.79,64.79,0,0,1,1,13.61,85.93,85.93,0,0,1-1,9.83c-.52,3.8-1.29,9.56-2.24,16.87" transform="translate(-232.9 -166.72)"/><circle class="cls-5" cx="95.09" cy="87.65" r="16.95"/><circle class="cls-5" cx="164.1" cy="87.43" r="16.95"/><path class="cls-6" d="M389.47,281.61l9.19-.66,12.43-.89" transform="translate(-232.9 -166.72)"/><path class="cls-6" d="M316.45,280.09l9.19.63,12.43.85" transform="translate(-232.9 -166.72)"/><path class="cls-4" d="M416,493.19a64.79,64.79,0,0,1,1,13.61,85.93,85.93,0,0,1-1,9.83c-.52,3.8-1.29,9.56-2.24,16.87" transform="translate(-232.9 -166.72)"/><path class="cls-7" d="M304.29,345.41c11.74-7.65,21.45,5.34,57.91,6.48,38.64,1.21,49.83-12.7,61.84-4.06,22.13,15.94,15.88,86.09-21.82,108.79-15,9-32.25,9-37,9-4.59,0-28.21-.46-46.67-14.91C284,423.62,282.76,359.44,304.29,345.41Z" transform="translate(-232.9 -166.72)"/><path class="cls-2" d="M293.42,312a16.43,16.43,0,0,0,11.53,6.87c-1.71,1.27-3.65,2.57-5.81,3.86a70.05,70.05,0,0,1-7.29,3.77,42.72,42.72,0,0,1,1.57-14.5Z" transform="translate(-232.9 -166.72)"/><path class="cls-2" d="M424.62,323.13a16.43,16.43,0,0,0,11.84-6.32c.2,2.12.32,4.45.3,7a70.05,70.05,0,0,1-.54,8.19,42.72,42.72,0,0,1-11.6-8.84Z" transform="translate(-232.9 -166.72)"/><path class="cls-2" d="M358,323a16.43,16.43,0,0,0,13.42.16c-.85,2-1.87,4.06-3.09,6.25a70.05,70.05,0,0,1-4.41,6.92A42.72,42.72,0,0,1,358,323Z" transform="translate(-232.9 -166.72)"/><path class="cls-2" d="M372.16,194.6a16.43,16.43,0,0,0-13.41.61c.74-2,1.63-4.16,2.73-6.42a70.05,70.05,0,0,1,4-7.16,42.72,42.72,0,0,1,6.67,13Z" transform="translate(-232.9 -166.72)"/><path class="cls-8" d="M430.15,525c.2-4.1.79-5-.11-6.18-1.79-2.4-5.47-.67-13.59-1.21-7.7-.52-11.51-2.55-13-.59-.5.67-.26,2.43.24,5.92.72,5,1.41,6.83.49,7.69s-2.31.2-3.91-.3a19.09,19.09,0,0,0-12.23.59c-4.61,2-8.28,8-7.38,13.44A12.7,12.7,0,0,0,385.6,552c6.28,4.9,11,.39,26.27,2.7,6.47,1,10.56,2.53,14.24,0a13.41,13.41,0,0,0,4.28-5.71c.73-1.83.89-3.44.81-7.41C431,531.9,429.85,531.1,430.15,525Z" transform="translate(-232.9 -166.72)"/><path class="cls-8" d="M311,520.39c.2-4.1.79-5-.11-6.18-1.79-2.4-5.47-.67-13.59-1.21-7.7-.52-11.51-2.55-13-.59-.5.67-.26,2.43.24,5.92.72,5,1.41,6.83.49,7.69s-2.31.2-3.91-.3a19.09,19.09,0,0,0-12.23.59c-4.61,2-8.28,8-7.38,13.44a12.7,12.7,0,0,0,4.91,7.61c6.28,4.9,11,.39,26.27,2.7,6.47,1,10.56,2.53,14.24,0a13.41,13.41,0,0,0,4.28-5.71c.73-1.83.89-3.44.81-7.41C311.83,527.28,310.66,526.48,311,520.39Z" transform="translate(-232.9 -166.72)"/><path class="cls-9" d="M315.55,438.65c-.52,6.67,46.33,29.39,80.57,8.91,32.64-19.52,36.65-68,30-71.41-5.94-3-17.82,30.7-56.36,49C339.83,439.42,315.91,433.93,315.55,438.65Z" transform="translate(-232.9 -166.72)"/><circle cx="94.36" cy="87.24" r="10.89"/><circle cx="164.1" cy="87.02" r="10.89"/><path class="cls-10" d="M450.5,354.35q1.12,12.41,1.9,25.54.81,13.83,1.14,26.94" transform="translate(-232.9 -166.72)"/><path class="cls-11" d="M458.88,407.17c4.47,3.42,8.46,6.65,8.16,7.09-.43.64-9.21-5.63-10.94-3.89-2.06,2.09,7.07,14.57,6.63,14.86s-6.47-10.58-10.06-9.59c-3.43,1-3.52,12.42-3.33,12.44s3.67-14.52.45-16.11c-2.71-1.33-9.27,7-9.74,6.59s2.83-4.4,6.83-9.36" transform="translate(-232.9 -166.72)"/><path class="cls-10" d="M273.38,351.32q-.77,12.44-2,25.53-1.29,13.8-2.95,26.8" transform="translate(-232.9 -166.72)"/><path class="cls-11" d="M273.67,404.8c3.9,4.06,7.35,7.85,7,8.25-.52.57-8.25-7-10.22-5.5-2.35,1.75,4.79,15.47,4.3,15.7s-4.8-11.44-8.49-11c-3.53.42-5.35,11.74-5.18,11.8s5.83-13.8,2.88-15.85c-2.48-1.73-10.23,5.52-10.62,5s3.46-3.92,8.17-8.22" transform="translate(-232.9 -166.72)"/><path class="cls-12" d="M363.89,271c-2.24-.66-4.07.18-4.3,1.07s.9,2.36,3,3" transform="translate(-232.9 -166.72)"/><path class="cls-13" d="M356.45,292.91c-.65,5,3.17,9.23,7.2,9.35s8.34-4.12,7.68-9.35" transform="translate(-232.9 -166.72)"/><path class="cls-5" d="M326.23,246.69c-.33-.68-3.73-.49-5.5,1.57-1.42,1.66-1.55,4.27-.92,4.58.28.14.65-.21,3.14-2.62C326.07,247.2,326.34,246.92,326.23,246.69Z" transform="translate(-232.9 -166.72)"/><path class="cls-5" d="M396.25,246.38c-.33-.68-3.73-.49-5.5,1.57-1.42,1.66-1.55,4.27-.92,4.58.28.14.65-.21,3.14-2.62C396.09,246.9,396.36,246.62,396.25,246.38Z" transform="translate(-232.9 -166.72)"/></svg>