<svg id="Layer_1" data-name="Layer 1" xmlns="http://www.w3.org/2000/svg" viewBox="0 0 145.59 204.79"><defs><style>.cls-1{fill:#ffe149;}.cls-2{fill:red;stroke:red;}.cls-10,.cls-11,.cls-12,.cls-13,.cls-2,.cls-4,.cls-6{stroke-linecap:round;}.cls-11,.cls-2{stroke-linejoin:round;}.cls-3{fill:#ffebca;}.cls-10,.cls-11,.cls-12,.cls-13,.cls-4,.cls-6{fill:none;}.cls-10,.cls-11,.cls-4{stroke:#ffebca;}.cls-10,.cls-12,.cls-13,.cls-4,.cls-6{stroke-miterlimit:10;}.cls-4{stroke-width:10px;}.cls-5{fill:#fff;}.cls-6{stroke:#ffcfd4;stroke-width:12px;}.cls-7{fill:#99d479;}.cls-8{fill:#99d4ff;}.cls-9{fill:#75bc57;}.cls-10{stroke-width:9px;}.cls-11{stroke-width:3px;}.cls-12,.cls-13{stroke:#000;}.cls-13{stroke-width:2px;}</style></defs><title>boihappysmall</title><path class="cls-1" d="M249.33,518.56C227.19,503.77,232.72,465.7,236,443c3.68-25.38,8.5-58.6,36.61-78.88,5.8-4.19,20-14.44,38.1-12.68,4.43.43,14.91,2.15,28.51,13.55,31.43,26.34,36.07,67.28,37.73,84.34,1.94,20,6.13,63.13-18.63,77-3.54,2-8.11,2.76-17.23,4.33-32.3,5.53-59.33-1.89-75.45-6.49C256.46,521.56,251.87,520.25,249.33,518.56Z" transform="translate(-232.9 -351.26)"/><path class="cls-2" d="M333.47,376.64a8.63,8.63,0,0,0-1.91-2.69,9.53,9.53,0,0,0-3.63-2.15c1.1-.46,2.33-.91,3.68-1.32a42.15,42.15,0,0,1,4.49-1.11,21.15,21.15,0,0,1-1,3.82A21.69,21.69,0,0,1,333.47,376.64Z" transform="translate(-232.9 -351.26)"/><path class="cls-2" d="M286.76,370.23a9.61,9.61,0,0,0-3.07,1.5,8.82,8.82,0,0,0-2.66,3.15,34.81,34.81,0,0,1-1.06-3.53,34.43,34.43,0,0,1-.75-4.26,25.47,25.47,0,0,1,4,1.31A24.77,24.77,0,0,1,286.76,370.23Z" transform="translate(-232.9 -351.26)"/><path class="cls-2" d="M269.65,385.53a9,9,0,0,0-2.42,2.31,8.32,8.32,0,0,0-1.48,3.75,36.74,36.74,0,0,1-2.18-3.06,36,36,0,0,1-2.13-3.84,26,26,0,0,1,8.21.84Z" transform="translate(-232.9 -351.26)"/><path class="cls-2" d="M261.05,404.89a8.23,8.23,0,0,0-1,3.08,8.15,8.15,0,0,0,.55,4c-1.08-.49-2.24-1.08-3.45-1.78a39.81,39.81,0,0,1-3.8-2.49,25,25,0,0,1,3.81-1.73A25.64,25.64,0,0,1,261.05,404.89Z" transform="translate(-232.9 -351.26)"/><path class="cls-2" d="M346.38,391.64a8.19,8.19,0,0,0-.93-3.1,8.93,8.93,0,0,0-2.75-3.07c1.2-.12,2.52-.2,3.94-.21a42.7,42.7,0,0,1,4.64.21,22.25,22.25,0,0,1-2.22,3.35A23.1,23.1,0,0,1,346.38,391.64Z" transform="translate(-232.9 -351.26)"/><path class="cls-2" d="M352.43,411.89a8.1,8.1,0,0,0,.45-3.19,8.28,8.28,0,0,0-1.23-3.83c1.15.33,2.4.73,3.72,1.24a41,41,0,0,1,4.18,1.89,24.27,24.27,0,0,1-3.46,2.27A25.07,25.07,0,0,1,352.43,411.89Z" transform="translate(-232.9 -351.26)"/><path class="cls-3" d="M285.64,428.81c46.24-1.56,54.56,5.13,60-1.42,10.56-12.62-5.51-55.14-35.51-57.89-15.19-1.39-30.07,7.77-37.5,19.07-8,12.12-10,30.65-1.1,37.49C275.68,429.22,280.87,429,285.64,428.81Z" transform="translate(-232.9 -351.26)"/><path class="cls-4" d="M269.92,521a31.71,31.71,0,0,1,.59,7.16,42.09,42.09,0,0,1-.59,5.17c-.29,2-.73,5-1.27,8.87" transform="translate(-232.9 -351.26)"/><ellipse class="cls-5" cx="53.86" cy="46.1" rx="9.6" ry="8.92"/><ellipse class="cls-5" cx="92.95" cy="45.99" rx="9.6" ry="8.92"/><path class="cls-6" d="M321.58,411.69l5.2-.35,7-.47" transform="translate(-232.9 -351.26)"/><path class="cls-6" d="M280.22,410.89l5.2.33,7,.45" transform="translate(-232.9 -351.26)"/><path class="cls-4" d="M336.59,523a31.71,31.71,0,0,1,.59,7.16,42.09,42.09,0,0,1-.59,5.17c-.29,2-.73,5-1.27,8.87" transform="translate(-232.9 -351.26)"/><path class="cls-7" d="M273.33,445.25c6.65-4,12.15,2.81,32.8,3.41,21.89.64,28.23-6.68,35-2.13,12.53,8.38,9,45.29-12.36,57.22-8.47,4.74-18.27,4.72-21,4.71s-16-.24-26.43-7.84C261.84,486.39,261.14,452.63,273.33,445.25Z" transform="translate(-232.9 -351.26)"/><path class="cls-2" d="M267.18,427.67a9,9,0,0,0,2.49,2.24,9.87,9.87,0,0,0,4,1.37c-1,.67-2.07,1.35-3.29,2a40.88,40.88,0,0,1-4.13,2,20.95,20.95,0,0,1,.89-7.63Z" transform="translate(-232.9 -351.26)"/><path class="cls-2" d="M341.5,433.53a9.92,9.92,0,0,0,3.35-.82,9.27,9.27,0,0,0,3.35-2.51,34.23,34.23,0,0,1-.14,8,24.53,24.53,0,0,1-3.57-2.11A23.65,23.65,0,0,1,341.5,433.53Z" transform="translate(-232.9 -351.26)"/><path class="cls-2" d="M303.74,433.47a9.91,9.91,0,0,0,3.36.78,10,10,0,0,0,4.24-.7,35.83,35.83,0,0,1-1.75,3.29,36.62,36.62,0,0,1-2.5,3.64,22,22,0,0,1-2-3.45A21.39,21.39,0,0,1,303.74,433.47Z" transform="translate(-232.9 -351.26)"/><path class="cls-2" d="M311.78,365.92a10,10,0,0,0-7.59.32,35.47,35.47,0,0,1,1.55-3.38A36.2,36.2,0,0,1,308,359.1a22.3,22.3,0,0,1,2.25,3.34A21.58,21.58,0,0,1,311.78,365.92Z" transform="translate(-232.9 -351.26)"/><path class="cls-8" d="M344.63,539.72c.11-2.15.45-2.62-.06-3.25-1-1.26-3.1-.35-7.7-.64-4.36-.27-6.52-1.34-7.35-.31-.28.35-.15,1.28.14,3.11.41,2.64.8,3.59.28,4s-1.31.11-2.22-.16a11.6,11.6,0,0,0-6.93.31c-2.61,1.06-4.69,4.19-4.18,7.07a6.69,6.69,0,0,0,2.78,4c3.56,2.58,6.22.21,14.88,1.42,3.67.51,6,1.33,8.07,0a7.09,7.09,0,0,0,2.43-3,8.55,8.55,0,0,0,.46-3.9C345.12,543.35,344.46,542.93,344.63,539.72Z" transform="translate(-232.9 -351.26)"/><path class="cls-8" d="M277.12,537.29c.11-2.15.45-2.62-.06-3.25-1-1.26-3.1-.35-7.7-.64-4.36-.27-6.52-1.34-7.35-.31-.28.35-.15,1.28.14,3.11.41,2.64.8,3.59.28,4s-1.31.11-2.22-.16a11.6,11.6,0,0,0-6.93.31c-2.61,1.06-4.69,4.19-4.18,7.07a6.69,6.69,0,0,0,2.78,4c3.56,2.58,6.22.21,14.88,1.42,3.67.51,6,1.33,8.07,0a7.09,7.09,0,0,0,2.43-3,8.55,8.55,0,0,0,.46-3.9C277.61,540.92,276.95,540.5,277.12,537.29Z" transform="translate(-232.9 -351.26)"/><path class="cls-9" d="M279.71,494.3c-.29,3.51,26.24,15.46,45.64,4.69,18.49-10.27,20.76-35.77,17-37.56-3.36-1.59-10.09,16.15-31.93,25.8C293.47,494.7,279.92,491.81,279.71,494.3Z" transform="translate(-232.9 -351.26)"/><ellipse cx="53.45" cy="45.89" rx="6.17" ry="5.73"/><ellipse cx="92.95" cy="45.77" rx="6.17" ry="5.73"/><path class="cls-10" d="M356.16,450q.63,6.53,1.08,13.43.46,7.28.65,14.17" transform="translate(-232.9 -351.26)"/><path class="cls-11" d="M360.9,477.74c2.53,1.8,4.79,3.5,4.62,3.73s-5.22-3-6.19-2c-1.17,1.1,4,7.66,3.75,7.82s-3.67-5.57-5.7-5-2,6.53-1.89,6.55,2.08-7.64.26-8.47c-1.54-.7-5.25,3.69-5.52,3.47s1.6-2.31,3.87-4.92" transform="translate(-232.9 -351.26)"/><path class="cls-10" d="M255.83,448.36q-.44,6.54-1.12,13.43Q254,469,253,475.89" transform="translate(-232.9 -351.26)"/><path class="cls-11" d="M256,476.49c2.21,2.13,4.17,4.13,4,4.34s-4.68-3.66-5.79-2.89c-1.33.92,2.71,8.14,2.44,8.26s-2.72-6-4.81-5.78-3,6.18-2.93,6.21,3.3-7.26,1.63-8.34c-1.41-.91-5.79,2.91-6,2.65s2-2.06,4.63-4.32" transform="translate(-232.9 -351.26)"/><path class="cls-12" d="M307.1,406.12c-1.27-.35-2.31.09-2.43.57s.51,1.24,1.67,1.55" transform="translate(-232.9 -351.26)"/><path class="cls-13" d="M302.88,417.64a4.27,4.27,0,1,0,8.43,0" transform="translate(-232.9 -351.26)"/><path class="cls-5" d="M285.76,393.32c-.19-.36-2.11-.26-3.11.83-.81.87-.88,2.24-.52,2.41.16.07.37-.11,1.78-1.38C285.68,393.59,285.83,393.45,285.76,393.32Z" transform="translate(-232.9 -351.26)"/><path class="cls-5" d="M325.43,393.16c-.19-.36-2.11-.26-3.11.83-.81.87-.88,2.24-.52,2.41.16.07.37-.11,1.78-1.38C325.34,393.43,325.49,393.29,325.43,393.16Z" transform="translate(-232.9 -351.26)"/></svg>