<svg xmlns="http://www.w3.org/2000/svg" viewBox="0 0 720 720"><defs><style>.cls-1{fill:#73d1ff;opacity:0.25;}.cls-2{fill:#ffe149;}.cls-3{fill:red;stroke:red;stroke-linejoin:round;}.cls-10,.cls-3,.cls-6,.cls-9{stroke-linecap:round;}.cls-4{fill:#ffebca;}.cls-5{fill:#fff;}.cls-10,.cls-6,.cls-9{fill:none;stroke-miterlimit:10;}.cls-6{stroke:#ffcfd4;stroke-width:18px;}.cls-7{fill:#99d479;}.cls-8{fill:#75bc57;}.cls-10,.cls-9{stroke:#000;}.cls-9{stroke-width:2px;}.cls-10{stroke-width:4px;}</style></defs><title>boipattern</title><g id="Layer_3" data-name="Layer 3"><path class="cls-1" d="M202.48,58.46c.2-1.07,1.25-6.84-2.29-11-2.36-2.77-5.48-3.49-6-3.36-.09,0-14.63,6.26-14.63,6.26s-17.89,7.91-18.17,8h0a18.09,18.09,0,0,1-9.56-1.68C137.94,50.31,121.1,42,121.1,42c-9.85-4.85-18.23-8.27-29.16-6.22h0s4.85,5.3,6.51,7.17a143.77,143.77,0,0,1,14.31,19.47c3.11,5,7.2,12.17,7.2,12.17l-7.66,2.92c-5.22,2-15.94,5.61-23.8,7.67a144.65,144.65,0,0,1-33.37,4.41A270.62,270.62,0,0,1,13.8,86.82s15.92,5,21.92,6.75c4,1.18,31.87,9.19,58,8.46a219.16,219.16,0,0,0,25.38-2.47l5.54-1c2.54-14-4.71,28.17-8.65,41.75L113.22,150s9-7.59,12.71-11.06c10.42-9.61,17.9-21.94,32.86-46.61l4.57-7.54h0s5.09-3.24,5.89-3.75c7.94-5,25.56-13.4,30-16.5l.1-.07a4.23,4.23,0,0,0,.33-.28C201.75,62.29,202.48,58.46,202.48,58.46Z"/><path class="cls-1" d="M369.41,61.36c.2-1.07,1.25-6.84-2.29-11-2.36-2.77-5.48-3.49-6-3.36-.09,0-14.63,6.26-14.63,6.26s-17.89,7.91-18.17,8h0a18.09,18.09,0,0,1-9.56-1.68C304.87,53.21,288,44.91,288,44.91c-9.85-4.85-18.23-8.27-29.16-6.22h0s4.85,5.3,6.51,7.17a143.77,143.77,0,0,1,14.31,19.47c3.11,5,7.2,12.17,7.2,12.17l-7.66,2.92c-5.22,2-15.94,5.61-23.8,7.67a144.65,144.65,0,0,1-33.37,4.41,270.62,270.62,0,0,1-41.33-2.77s15.92,5,21.92,6.75c4,1.18,31.87,9.19,58,8.46a219.16,219.16,0,0,0,25.38-2.47l5.54-1c2.54-14-4.71,28.17-8.65,41.75l-2.81,9.66s9-7.59,12.71-11.06c10.42-9.61,17.9-21.94,32.86-46.61l4.57-7.54h0s5.09-3.24,5.89-3.75c7.94-5,25.56-13.4,30-16.5l.1-.07a4.23,4.23,0,0,0,.33-.28C368.68,65.19,369.41,61.36,369.41,61.36Z"/><path class="cls-1" d="M529.18,61.36c.2-1.07,1.25-6.84-2.29-11-2.36-2.77-5.48-3.49-6-3.36-.09,0-14.63,6.26-14.63,6.26s-17.89,7.91-18.17,8h0a18.09,18.09,0,0,1-9.56-1.68c-13.9-6.36-30.75-14.66-30.75-14.66-9.85-4.85-18.23-8.27-29.16-6.22h0s4.85,5.3,6.51,7.17a143.77,143.77,0,0,1,14.31,19.47c3.11,5,7.2,12.17,7.2,12.17L439,80.41c-5.22,2-15.94,5.61-23.8,7.67a144.65,144.65,0,0,1-33.37,4.41,270.62,270.62,0,0,1-41.33-2.77s15.92,5,21.92,6.75c4,1.18,31.87,9.19,58,8.46a219.16,219.16,0,0,0,25.38-2.47l5.54-1c2.54-14-4.71,28.17-8.65,41.75l-2.81,9.66s9-7.59,12.71-11.06c10.42-9.61,17.9-21.94,32.86-46.61l4.57-7.54h0s5.09-3.24,5.89-3.75c7.94-5,25.56-13.4,30-16.5l.1-.07a4.23,4.23,0,0,0,.33-.28C528.44,65.19,529.18,61.36,529.18,61.36Z"/><path class="cls-1" d="M696.11,64.26c.2-1.07,1.25-6.84-2.29-11-2.36-2.77-5.48-3.49-6-3.36-.09,0-14.63,6.26-14.63,6.26s-17.89,7.91-18.17,8h0a18.09,18.09,0,0,1-9.56-1.68c-13.9-6.36-30.75-14.66-30.75-14.66-9.85-4.85-18.23-8.27-29.16-6.22h0s4.85,5.3,6.51,7.17a143.77,143.77,0,0,1,14.31,19.47c3.11,5,7.2,12.17,7.2,12.17l-7.66,2.92c-5.22,2-15.94,5.61-23.8,7.67a144.65,144.65,0,0,1-33.37,4.41,270.62,270.62,0,0,1-41.33-2.77s15.92,5,21.92,6.75c4,1.18,31.87,9.19,58,8.46a219.16,219.16,0,0,0,25.38-2.47l5.54-1c2.54-14-4.71,28.17-8.65,41.75l-2.81,9.66s9-7.59,12.71-11.06c10.42-9.61,17.9-21.94,32.86-46.61L657,90.59h0s5.09-3.24,5.89-3.75c7.94-5,25.56-13.4,30-16.5l.1-.07a4.23,4.23,0,0,0,.33-.28C695.37,68.1,696.11,64.26,696.11,64.26Z"/><path class="cls-1" d="M187.87,182.51c.2-1.07,1.25-6.84-2.29-11-2.36-2.77-5.48-3.49-6-3.36-.09,0-14.63,6.26-14.63,6.26s-17.89,7.91-18.17,8h0a18.09,18.09,0,0,1-9.56-1.68c-13.9-6.36-30.75-14.66-30.75-14.66-9.85-4.85-18.23-8.27-29.16-6.22h0s4.85,5.3,6.51,7.17a143.77,143.77,0,0,1,14.31,19.47c3.11,5,7.2,12.17,7.2,12.17l-7.66,2.92c-5.22,2-15.94,5.61-23.8,7.67a144.65,144.65,0,0,1-33.37,4.41A270.62,270.62,0,0,1-.81,210.87s15.92,5,21.92,6.75c4,1.18,31.87,9.19,58,8.46a219.16,219.16,0,0,0,25.38-2.47l5.54-1c2.54-14-4.71,28.17-8.65,41.75L98.61,274s9-7.59,12.71-11.06c10.42-9.61,17.9-21.94,32.86-46.61l4.57-7.54h0s5.09-3.24,5.89-3.75c7.94-5,25.56-13.4,30-16.5l.1-.07a4.23,4.23,0,0,0,.33-.28C187.14,186.34,187.87,182.51,187.87,182.51Z"/><path class="cls-1" d="M354.8,185.41c.2-1.07,1.25-6.84-2.29-11-2.36-2.77-5.48-3.49-6-3.36-.09,0-14.63,6.26-14.63,6.26s-17.89,7.91-18.17,8h0a18.09,18.09,0,0,1-9.56-1.68c-13.9-6.36-30.75-14.66-30.75-14.66-9.85-4.85-18.23-8.27-29.16-6.22h0s4.85,5.3,6.51,7.17a143.77,143.77,0,0,1,14.31,19.47c3.11,5,7.2,12.17,7.2,12.17l-7.66,2.92c-5.22,2-15.94,5.61-23.8,7.67a144.65,144.65,0,0,1-33.37,4.41,270.62,270.62,0,0,1-41.33-2.77s15.92,5,21.92,6.75c4,1.18,31.87,9.19,58,8.46a219.16,219.16,0,0,0,25.38-2.47l5.54-1c2.54-14-4.71,28.17-8.65,41.75l-2.81,9.66s9-7.59,12.71-11.06c10.42-9.61,17.9-21.94,32.86-46.61l4.57-7.54h0s5.09-3.24,5.89-3.75c7.94-5,25.56-13.4,30-16.5l.1-.07a4.23,4.23,0,0,0,.33-.28C354.07,189.24,354.8,185.41,354.8,185.41Z"/><path class="cls-1" d="M514.57,185.41c.2-1.07,1.25-6.84-2.29-11-2.36-2.77-5.48-3.49-6-3.36-.09,0-14.63,6.26-14.63,6.26s-17.89,7.91-18.17,8h0a18.09,18.09,0,0,1-9.56-1.68C450,177.26,433.18,169,433.18,169c-9.85-4.85-18.23-8.27-29.16-6.22h0s4.85,5.3,6.51,7.17a143.77,143.77,0,0,1,14.31,19.47c3.11,5,7.2,12.17,7.2,12.17l-7.66,2.92c-5.22,2-15.94,5.61-23.8,7.67a144.65,144.65,0,0,1-33.37,4.41,270.62,270.62,0,0,1-41.33-2.77s15.92,5,21.92,6.75c4,1.18,31.87,9.19,58,8.46a219.16,219.16,0,0,0,25.38-2.47l5.54-1c2.54-14-4.71,28.17-8.65,41.75l-2.81,9.66s9-7.59,12.71-11.06c10.42-9.61,17.9-21.94,32.86-46.61l4.57-7.54h0s5.09-3.24,5.89-3.75c7.94-5,25.56-13.4,30-16.5l.1-.07a4.23,4.23,0,0,0,.33-.28C513.83,189.24,514.57,185.41,514.57,185.41Z"/><path class="cls-1" d="M681.5,188.31c.2-1.07,1.25-6.84-2.29-11-2.36-2.77-5.48-3.49-6-3.36-.09,0-14.63,6.26-14.63,6.26s-17.89,7.91-18.17,8h0a18.09,18.09,0,0,1-9.56-1.68c-13.9-6.36-30.75-14.66-30.75-14.66-9.85-4.85-18.23-8.27-29.16-6.22h0s4.85,5.3,6.51,7.17a143.77,143.77,0,0,1,14.31,19.47c3.11,5,7.2,12.17,7.2,12.17l-7.66,2.92c-5.22,2-15.94,5.61-23.8,7.67a144.65,144.65,0,0,1-33.37,4.41,270.62,270.62,0,0,1-41.33-2.77s15.92,5,21.92,6.75c4,1.18,31.87,9.19,58,8.46a219.16,219.16,0,0,0,25.38-2.47l5.54-1c2.54-14-4.71,28.17-8.65,41.75l-2.81,9.66s9-7.59,12.71-11.06c10.42-9.61,17.9-21.94,32.86-46.61l4.57-7.54h0s5.09-3.24,5.89-3.75c7.94-5,25.56-13.4,30-16.5l.1-.07a4.23,4.23,0,0,0,.33-.28C680.76,192.15,681.5,188.31,681.5,188.31Z"/><path class="cls-1" d="M187.87,315c.2-1.07,1.25-6.84-2.29-11-2.36-2.77-5.48-3.49-6-3.36-.09,0-14.63,6.26-14.63,6.26s-17.89,7.91-18.17,8h0a18.09,18.09,0,0,1-9.56-1.68c-13.9-6.36-30.75-14.66-30.75-14.66-9.85-4.85-18.23-8.27-29.16-6.22h0s4.85,5.3,6.51,7.17a143.77,143.77,0,0,1,14.31,19.47c3.11,5,7.2,12.17,7.2,12.17L97.69,334c-5.22,2-15.94,5.61-23.8,7.67a144.65,144.65,0,0,1-33.37,4.41A270.62,270.62,0,0,1-.81,343.32s15.92,5,21.92,6.75c4,1.18,31.87,9.19,58,8.46a219.16,219.16,0,0,0,25.38-2.47l5.54-1c2.54-14-4.71,28.17-8.65,41.75l-2.81,9.66s9-7.59,12.71-11.06c10.42-9.61,17.9-21.94,32.86-46.61l4.57-7.54h0s5.09-3.24,5.89-3.75c7.94-5,25.56-13.4,30-16.5l.1-.07a4.23,4.23,0,0,0,.33-.28C187.14,318.79,187.87,315,187.87,315Z"/><path class="cls-1" d="M354.8,317.86c.2-1.07,1.25-6.84-2.29-11-2.36-2.77-5.48-3.49-6-3.36-.09,0-14.63,6.26-14.63,6.26s-17.89,7.91-18.17,8h0a18.09,18.09,0,0,1-9.56-1.68c-13.9-6.36-30.75-14.66-30.75-14.66-9.85-4.85-18.23-8.27-29.16-6.22h0s4.85,5.3,6.51,7.17a143.77,143.77,0,0,1,14.31,19.47c3.11,5,7.2,12.17,7.2,12.17l-7.66,2.92c-5.22,2-15.94,5.61-23.8,7.67A144.65,144.65,0,0,1,207.45,349a270.62,270.62,0,0,1-41.33-2.77S182,351.21,188,353c4,1.18,31.87,9.19,58,8.46A219.16,219.16,0,0,0,271.47,359l5.54-1c2.54-14-4.71,28.17-8.65,41.75l-2.81,9.66s9-7.59,12.71-11.06c10.42-9.61,17.9-21.94,32.86-46.61l4.57-7.54h0s5.09-3.24,5.89-3.75c7.94-5,25.56-13.4,30-16.5l.1-.07a4.23,4.23,0,0,0,.33-.28C354.07,321.69,354.8,317.86,354.8,317.86Z"/><path class="cls-1" d="M514.57,317.86c.2-1.07,1.25-6.84-2.29-11-2.36-2.77-5.48-3.49-6-3.36-.09,0-14.63,6.26-14.63,6.26s-17.89,7.91-18.17,8h0a18.09,18.09,0,0,1-9.56-1.68c-13.9-6.36-30.75-14.66-30.75-14.66-9.85-4.85-18.23-8.27-29.16-6.22h0s4.85,5.3,6.51,7.17a143.77,143.77,0,0,1,14.31,19.47c3.11,5,7.2,12.17,7.2,12.17l-7.66,2.92c-5.22,2-15.94,5.61-23.8,7.67A144.65,144.65,0,0,1,367.22,349a270.62,270.62,0,0,1-41.33-2.77s15.92,5,21.92,6.75c4,1.18,31.87,9.19,58,8.46A219.16,219.16,0,0,0,431.23,359l5.54-1c2.54-14-4.71,28.17-8.65,41.75l-2.81,9.66s9-7.59,12.71-11.06c10.42-9.61,17.9-21.94,32.86-46.61l4.57-7.54h0s5.09-3.24,5.89-3.75c7.94-5,25.56-13.4,30-16.5l.1-.07a4.23,4.23,0,0,0,.33-.28C513.83,321.69,514.57,317.86,514.57,317.86Z"/><path class="cls-1" d="M681.5,320.76c.2-1.07,1.25-6.84-2.29-11-2.36-2.77-5.48-3.49-6-3.36-.09,0-14.63,6.26-14.63,6.26s-17.89,7.91-18.17,8h0a18.09,18.09,0,0,1-9.56-1.68c-13.9-6.36-30.75-14.66-30.75-14.66-9.85-4.85-18.23-8.27-29.16-6.22h0s4.85,5.3,6.51,7.17a143.77,143.77,0,0,1,14.31,19.47c3.11,5,7.2,12.17,7.2,12.17l-7.66,2.92c-5.22,2-15.94,5.61-23.8,7.67a144.65,144.65,0,0,1-33.37,4.41,270.62,270.62,0,0,1-41.33-2.77s15.92,5,21.92,6.75c4,1.18,31.87,9.19,58,8.46a219.16,219.16,0,0,0,25.38-2.47l5.54-1c2.54-14-4.71,28.17-8.65,41.75l-2.81,9.66s9-7.59,12.71-11.06c10.42-9.61,17.9-21.94,32.86-46.61l4.57-7.54h0s5.09-3.24,5.89-3.75c7.94-5,25.56-13.4,30-16.5l.1-.07a4.23,4.23,0,0,0,.33-.28C680.76,324.6,681.5,320.76,681.5,320.76Z"/><path class="cls-1" d="M202.48,450.31c.2-1.07,1.25-6.84-2.29-11-2.36-2.77-5.48-3.49-6-3.36-.09,0-14.63,6.26-14.63,6.26s-17.89,7.91-18.17,8h0a18.09,18.09,0,0,1-9.56-1.68c-13.9-6.36-30.75-14.66-30.75-14.66-9.85-4.85-18.23-8.27-29.16-6.22h0s4.85,5.3,6.51,7.17a143.77,143.77,0,0,1,14.31,19.47c3.11,5,7.2,12.17,7.2,12.17l-7.66,2.92c-5.22,2-15.94,5.61-23.8,7.67a144.65,144.65,0,0,1-33.37,4.41,270.62,270.62,0,0,1-41.33-2.77s15.92,5,21.92,6.75c4,1.18,31.87,9.19,58,8.46a219.16,219.16,0,0,0,25.38-2.47l5.54-1c2.54-14-4.71,28.17-8.65,41.75l-2.81,9.66s9-7.59,12.71-11.06c10.42-9.61,17.9-21.94,32.86-46.61l4.57-7.54h0s5.09-3.24,5.89-3.75c7.94-5,25.56-13.4,30-16.5l.1-.07a4.23,4.23,0,0,0,.33-.28C201.75,454.15,202.48,450.31,202.48,450.31Z"/><path class="cls-1" d="M369.41,453.22c.2-1.07,1.25-6.84-2.29-11-2.36-2.77-5.48-3.49-6-3.36-.09,0-14.63,6.26-14.63,6.26s-17.89,7.91-18.17,8h0a18.09,18.09,0,0,1-9.56-1.68c-13.9-6.36-30.75-14.66-30.75-14.66-9.85-4.85-18.23-8.27-29.16-6.22h0s4.85,5.3,6.51,7.17a143.77,143.77,0,0,1,14.31,19.47c3.11,5,7.2,12.17,7.2,12.17l-7.66,2.92c-5.22,2-15.94,5.61-23.8,7.67a144.65,144.65,0,0,1-33.37,4.41,270.62,270.62,0,0,1-41.33-2.77s15.92,5,21.92,6.75c4,1.18,31.87,9.19,58,8.46a219.16,219.16,0,0,0,25.38-2.47l5.54-1c2.54-14-4.71,28.17-8.65,41.75l-2.81,9.66s9-7.59,12.71-11.06c10.42-9.61,17.9-21.94,32.86-46.61l4.57-7.54h0s5.09-3.24,5.89-3.75c7.94-5,25.56-13.4,30-16.5l.1-.07a4.23,4.23,0,0,0,.33-.28C368.68,457,369.41,453.22,369.41,453.22Z"/><path class="cls-1" d="M529.18,453.22c.2-1.07,1.25-6.84-2.29-11-2.36-2.77-5.48-3.49-6-3.36-.09,0-14.63,6.26-14.63,6.26s-17.89,7.91-18.17,8h0a18.09,18.09,0,0,1-9.56-1.68c-13.9-6.36-30.75-14.66-30.75-14.66-9.85-4.85-18.23-8.27-29.16-6.22h0s4.85,5.3,6.51,7.17a143.77,143.77,0,0,1,14.31,19.47c3.11,5,7.2,12.17,7.2,12.17L439,472.27c-5.22,2-15.94,5.61-23.8,7.67a144.65,144.65,0,0,1-33.37,4.41,270.62,270.62,0,0,1-41.33-2.77s15.92,5,21.92,6.75c4,1.18,31.87,9.19,58,8.46a219.16,219.16,0,0,0,25.38-2.47l5.54-1c2.54-14-4.71,28.17-8.65,41.75l-2.81,9.66s9-7.59,12.71-11.06c10.42-9.61,17.9-21.94,32.86-46.61l4.57-7.54h0s5.09-3.24,5.89-3.75c7.94-5,25.56-13.4,30-16.5l.1-.07a4.23,4.23,0,0,0,.33-.28C528.44,457,529.18,453.22,529.18,453.22Z"/><path class="cls-1" d="M696.11,456.12c.2-1.07,1.25-6.84-2.29-11-2.36-2.77-5.48-3.49-6-3.36-.09,0-14.63,6.26-14.63,6.26s-17.89,7.91-18.17,8h0a18.09,18.09,0,0,1-9.56-1.68c-13.9-6.36-30.75-14.66-30.75-14.66-9.85-4.85-18.23-8.27-29.16-6.22h0s4.85,5.3,6.51,7.17a143.77,143.77,0,0,1,14.31,19.47c3.11,5,7.2,12.17,7.2,12.17l-7.66,2.92c-5.22,2-15.94,5.61-23.8,7.67a144.65,144.65,0,0,1-33.37,4.41,270.62,270.62,0,0,1-41.33-2.77s15.92,5,21.92,6.75c4,1.18,31.87,9.19,58,8.46a219.16,219.16,0,0,0,25.38-2.47l5.54-1c2.54-14-4.71,28.17-8.65,41.75l-2.81,9.66s9-7.59,12.71-11.06C630,527,637.46,514.65,652.42,490l4.57-7.54h0s5.09-3.24,5.89-3.75c7.94-5,25.56-13.4,30-16.5l.1-.07a4.23,4.23,0,0,0,.33-.28C695.37,460,696.11,456.12,696.11,456.12Z"/><path class="cls-1" d="M206.94,582.76c.2-1.07,1.25-6.84-2.29-11-2.36-2.77-5.48-3.49-6-3.36-.09,0-14.63,6.26-14.63,6.26s-17.89,7.91-18.17,8h0A18.09,18.09,0,0,1,156.3,581c-13.9-6.36-30.75-14.66-30.75-14.66-9.85-4.85-18.23-8.27-29.16-6.22h0s4.85,5.3,6.51,7.17a143.77,143.77,0,0,1,14.31,19.47c3.11,5,7.2,12.17,7.2,12.17l-7.66,2.92c-5.22,2-15.94,5.61-23.8,7.67a144.65,144.65,0,0,1-33.37,4.41,270.62,270.62,0,0,1-41.33-2.77s15.92,5,21.92,6.75c4,1.18,31.87,9.19,58,8.46a219.16,219.16,0,0,0,25.38-2.47l5.54-1c2.54-14-4.71,28.17-8.65,41.75l-2.81,9.66s9-7.59,12.71-11.06c10.42-9.61,17.9-21.94,32.86-46.61l4.57-7.54h0s5.09-3.24,5.89-3.75c7.94-5,25.56-13.4,30-16.5l.1-.07a4.23,4.23,0,0,0,.33-.28C206.21,586.6,206.94,582.76,206.94,582.76Z"/><path class="cls-1" d="M373.87,585.67c.2-1.07,1.25-6.84-2.29-11-2.36-2.77-5.48-3.49-6-3.36-.09,0-14.63,6.26-14.63,6.26s-17.89,7.91-18.17,8h0a18.09,18.09,0,0,1-9.56-1.68c-13.9-6.36-30.75-14.66-30.75-14.66-9.85-4.85-18.23-8.27-29.16-6.22h0s4.85,5.3,6.51,7.17a143.77,143.77,0,0,1,14.31,19.47c3.11,5,7.2,12.17,7.2,12.17l-7.66,2.92c-5.22,2-15.94,5.61-23.8,7.67a144.65,144.65,0,0,1-33.37,4.41A270.62,270.62,0,0,1,185.19,614s15.92,5,21.92,6.75c4,1.18,31.87,9.19,58,8.46a219.16,219.16,0,0,0,25.38-2.47l5.54-1c2.54-14-4.71,28.17-8.65,41.75l-2.81,9.66s9-7.59,12.71-11.06c10.42-9.61,17.9-21.94,32.86-46.61l4.57-7.54h0s5.09-3.24,5.89-3.75c7.94-5,25.56-13.4,30-16.5l.1-.07a4.23,4.23,0,0,0,.33-.28C373.14,589.5,373.87,585.67,373.87,585.67Z"/><path class="cls-1" d="M533.63,585.67c.2-1.07,1.25-6.84-2.29-11-2.36-2.77-5.48-3.49-6-3.36-.09,0-14.63,6.26-14.63,6.26s-17.89,7.91-18.17,8h0a18.09,18.09,0,0,1-9.56-1.68c-13.9-6.36-30.75-14.66-30.75-14.66-9.85-4.85-18.23-8.27-29.16-6.22h0s4.85,5.3,6.51,7.17a143.77,143.77,0,0,1,14.31,19.47c3.11,5,7.2,12.17,7.2,12.17l-7.66,2.92c-5.22,2-15.94,5.61-23.8,7.67a144.65,144.65,0,0,1-33.37,4.41A270.62,270.62,0,0,1,345,614s15.92,5,21.92,6.75c4,1.18,31.87,9.19,58,8.46a219.16,219.16,0,0,0,25.38-2.47l5.54-1c2.54-14-4.71,28.17-8.65,41.75l-2.81,9.66s9-7.59,12.71-11.06c10.42-9.61,17.9-21.94,32.86-46.61l4.57-7.54h0s5.09-3.24,5.89-3.75c7.94-5,25.56-13.4,30-16.5l.1-.07a4.23,4.23,0,0,0,.33-.28C532.9,589.5,533.63,585.67,533.63,585.67Z"/><path class="cls-1" d="M700.57,588.57c.2-1.07,1.25-6.84-2.29-11-2.36-2.77-5.48-3.49-6-3.36-.09,0-14.63,6.26-14.63,6.26s-17.89,7.91-18.17,8h0a18.09,18.09,0,0,1-9.56-1.68c-13.9-6.36-30.75-14.66-30.75-14.66-9.85-4.85-18.23-8.27-29.16-6.22h0s4.85,5.3,6.51,7.17a143.77,143.77,0,0,1,14.31,19.47c3.11,5,7.2,12.17,7.2,12.17l-7.66,2.92c-5.22,2-15.94,5.61-23.8,7.67a144.65,144.65,0,0,1-33.37,4.41,270.62,270.62,0,0,1-41.33-2.77s15.92,5,21.92,6.75c4,1.18,31.87,9.19,58,8.46a219.16,219.16,0,0,0,25.38-2.47l5.54-1c2.54-14-4.71,28.17-8.65,41.75l-2.81,9.66s9-7.59,12.71-11.06c10.42-9.61,17.9-21.94,32.86-46.61l4.57-7.54h0s5.09-3.24,5.89-3.75c7.94-5,25.56-13.4,30-16.5l.1-.07a4.23,4.23,0,0,0,.33-.28C699.83,592.4,700.57,588.57,700.57,588.57Z"/></g><g id="Layer_2" data-name="Layer 2"><path class="cls-2" d="M199.77,689.06c-62.43-41-46.84-146.69-37.56-209.62,10.39-70.43,24-162.65,103.24-218.94,16.36-11.62,56.46-40.09,107.43-35.2,12.49,1.2,42,6,80.39,37.6C541.89,336,555,449.65,559.65,497c5.48,55.49,17.3,175.21-52.54,213.68-10,5.5-22.86,7.67-48.6,12-91.08,15.33-167.31-5.24-212.78-18C219.86,697.4,206.93,693.77,199.77,689.06Z"/><path class="cls-3" d="M437,295.2a24,24,0,0,0-5.38-7.46,27,27,0,0,0-10.24-6c3.11-1.26,6.58-2.52,10.39-3.67A120.43,120.43,0,0,1,444.46,275a58,58,0,0,1-2.85,10.6A59.77,59.77,0,0,1,437,295.2Z"/><path class="cls-3" d="M305.31,277.4a27.3,27.3,0,0,0-8.65,4.17,24.56,24.56,0,0,0-7.49,8.73,95.47,95.47,0,0,1-3-9.81,94.2,94.2,0,0,1-2.12-11.82,72.65,72.65,0,0,1,11.27,3.63A70.26,70.26,0,0,1,305.31,277.4Z"/><path class="cls-3" d="M257.07,319.86a25.29,25.29,0,0,0-6.82,6.4,22.87,22.87,0,0,0-4.18,10.42,102,102,0,0,1-6.15-8.49,99.32,99.32,0,0,1-6-10.65,74.34,74.34,0,0,1,23.15,2.32Z"/><path class="cls-3" d="M232.82,373.59a22.6,22.6,0,0,0-2.82,8.56,22.29,22.29,0,0,0,1.55,11c-3.05-1.37-6.33-3-9.74-4.94a112.46,112.46,0,0,1-10.7-6.91,71.1,71.1,0,0,1,10.74-4.79A73.23,73.23,0,0,1,232.82,373.59Z"/><path class="cls-3" d="M473.45,336.82a22.47,22.47,0,0,0-2.63-8.61,24.93,24.93,0,0,0-7.76-8.53c3.38-.34,7.1-.56,11.12-.6a122.33,122.33,0,0,1,13.09.6A61.67,61.67,0,0,1,481,329,64.57,64.57,0,0,1,473.45,336.82Z"/><path class="cls-3" d="M490.5,393a22.16,22.16,0,0,0,1.28-8.86,22.74,22.74,0,0,0-3.47-10.63c3.26.91,6.78,2,10.48,3.44a116.64,116.64,0,0,1,11.78,5.25,68.55,68.55,0,0,1-9.75,6.31A71.29,71.29,0,0,1,490.5,393Z"/><path class="cls-4" d="M302.15,440c130.4-4.32,153.85,14.23,169.3-4,29.78-35-15.54-153-100.14-160.66-42.85-3.86-84.81,21.57-105.74,52.94-22.45,33.64-28.19,85.08-3.1,104C274.07,441.11,288.7,440.43,302.15,440Z"/><ellipse class="cls-5" cx="305.31" cy="352.7" rx="27.08" ry="24.75"/><ellipse class="cls-5" cx="415.54" cy="352.39" rx="27.08" ry="24.75"/><path class="cls-6" d="M403.52,392.47l14.67-1L438,390.2"/><path class="cls-6" d="M286.88,390.25l14.68.92,19.85,1.24"/><path class="cls-7" d="M267.46,485.61c18.75-11.17,34.26,7.8,92.5,9.47,61.73,1.76,79.6-18.54,98.77-5.92,35.34,23.27,25.36,125.69-34.86,158.82C400,661.12,372.35,661.06,364.74,661c-7.33,0-45.07-.67-74.54-21.77C235,599.79,233.07,506.09,267.46,485.61Z"/><path class="cls-3" d="M250.09,436.83a25.36,25.36,0,0,0,7,6.22,28.13,28.13,0,0,0,11.4,3.8c-2.74,1.85-5.83,3.76-9.28,5.63A116.11,116.11,0,0,1,247.59,458a57,57,0,0,1,.28-10.92A57.67,57.67,0,0,1,250.09,436.83Z"/><path class="cls-3" d="M459.66,453.08a28.34,28.34,0,0,0,9.46-2.27,26.08,26.08,0,0,0,9.46-7,93.51,93.51,0,0,1-.38,22.12,69.43,69.43,0,0,1-10.08-5.87A66.42,66.42,0,0,1,459.66,453.08Z"/><path class="cls-3" d="M353.19,452.9a28.32,28.32,0,0,0,9.48,2.17,28.64,28.64,0,0,0,12-1.94,98.94,98.94,0,0,1-4.94,9.12,101.6,101.6,0,0,1-7,10.1,61,61,0,0,1-5.74-9.58A58.78,58.78,0,0,1,353.19,452.9Z"/><path class="cls-3" d="M375.87,265.44a28.5,28.5,0,0,0-21.42.89,97.72,97.72,0,0,1,4.36-9.37,100.18,100.18,0,0,1,6.41-10.45,61.85,61.85,0,0,1,6.33,9.26A59.41,59.41,0,0,1,375.87,265.44Z"/><path class="cls-8" d="M285.44,621.73c-.83,9.74,74,42.9,128.7,13,52.14-28.49,58.54-99.27,47.86-104.25-9.48-4.42-28.47,44.82-90,71.6C324.23,622.86,286,614.84,285.44,621.73Z"/><ellipse cx="304.15" cy="352.1" rx="17.4" ry="15.9"/><ellipse cx="415.54" cy="351.79" rx="17.4" ry="15.9"/><path class="cls-9" d="M362.67,377c-3.58-1-6.5.26-6.87,1.57s1.44,3.44,4.72,4.31"/><path class="cls-10" d="M350.78,409a12.19,12.19,0,0,0,11.51,13.66c6.67.18,13.31-6,12.27-13.66"/><path class="cls-5" d="M302.51,341.49c-.53-1-6-.72-8.78,2.29-2.27,2.43-2.48,6.23-1.46,6.69.45.2,1-.3,5-3.82C302.26,342.24,302.69,341.83,302.51,341.49Z"/><path class="cls-5" d="M414.35,341c-.53-1-6-.72-8.78,2.29-2.27,2.43-2.48,6.23-1.46,6.69.45.2,1-.3,5-3.82C414.1,341.79,414.53,341.38,414.35,341Z"/></g></svg>