<svg xmlns="http://www.w3.org/2000/svg" viewBox="0 0 720 720"><defs><style>.cls-1{fill:#73d1ff;}.cls-2{fill:#e6fffd;}.cls-3{fill:#ffe149;}.cls-4{fill:red;stroke:red;stroke-linejoin:round;}.cls-10,.cls-11,.cls-4,.cls-7{stroke-linecap:round;}.cls-5{fill:#ffebca;}.cls-6{fill:#fff;}.cls-10,.cls-11,.cls-7{fill:none;stroke-miterlimit:10;}.cls-7{stroke:#ffcfd4;stroke-width:18px;}.cls-8{fill:#99d479;}.cls-9{fill:#75bc57;}.cls-10,.cls-11{stroke:#000;}.cls-10{stroke-width:2px;}.cls-11{stroke-width:4px;}</style></defs><title>boipattern</title><g id="Layer_5" data-name="Layer 5"><ellipse class="cls-1" cx="364.91" cy="386.71" rx="343.88" ry="336.79"/></g><g id="Layer_3" data-name="Layer 3"><path class="cls-2" d="M200.71,82.72c.2-1.08,1.26-6.88-2.22-11-2.32-2.77-5.4-3.49-5.9-3.36-.08,0-14.47,6.35-14.47,6.35s-17.7,8-18,8.08h0a17.54,17.54,0,0,1-9.44-1.65C137,74.76,120.37,66.48,120.37,66.48c-9.71-4.84-18-8.24-28.78-6.14h0s4.77,5.31,6.41,7.18A143,143,0,0,1,112.05,87c3.05,5,7.06,12.21,7.06,12.21l-7.57,3c-5.16,2-15.77,5.7-23.54,7.8a141,141,0,0,1-33,4.55,262.45,262.45,0,0,1-40.82-2.63s15.71,5,21.63,6.7c4,1.17,31.45,9.12,57.31,8.29a213.37,213.37,0,0,0,25.08-2.57l5.47-1c2.56-14.07-4.76,28.34-8.7,42l-2.82,9.73s8.87-7.66,12.6-11.16c10.33-9.7,17.76-22.12,32.63-47l4.55-7.6h0s5-3.28,5.83-3.79c7.86-5.09,25.3-13.56,29.74-16.7l.1-.07a4.24,4.24,0,0,0,.33-.28C200,86.57,200.71,82.72,200.71,82.72Z"/><path class="cls-2" d="M365.6,85c.2-1.08,1.26-6.88-2.22-11-2.32-2.77-5.4-3.49-5.9-3.36C357.39,70.65,343,77,343,77s-17.7,8-18,8.08h0a17.54,17.54,0,0,1-9.44-1.65c-13.71-6.34-30.32-14.62-30.32-14.62-9.71-4.84-18-8.24-28.78-6.14h0s4.77,5.31,6.41,7.18a143,143,0,0,1,14.06,19.52c3.05,5,7.06,12.21,7.06,12.21l-7.57,3c-5.16,2-15.77,5.7-23.54,7.8a141,141,0,0,1-33,4.55,262.45,262.45,0,0,1-40.82-2.63s15.71,5,21.63,6.7c4,1.17,31.45,9.12,57.31,8.29a213.37,213.37,0,0,0,25.08-2.57l5.47-1c2.56-14.07-4.76,28.34-8.7,42l-2.82,9.73s8.87-7.66,12.6-11.16c10.33-9.7,17.76-22.12,32.63-47l4.55-7.6h0s5-3.28,5.83-3.79c7.86-5.09,25.3-13.56,29.74-16.7l.1-.07a4.24,4.24,0,0,0,.33-.28C364.86,88.87,365.6,85,365.6,85Z"/><path class="cls-2" d="M523.42,84.42c.2-1.08,1.26-6.88-2.22-11-2.32-2.77-5.4-3.49-5.9-3.36-.08,0-14.47,6.35-14.47,6.35s-17.7,8-18,8.08h0a17.54,17.54,0,0,1-9.44-1.65c-13.71-6.34-30.32-14.62-30.32-14.62-9.71-4.84-18-8.24-28.78-6.14h0s4.77,5.31,6.41,7.18a143,143,0,0,1,14.06,19.52c3.05,5,7.06,12.21,7.06,12.21l-7.57,3c-5.16,2-15.77,5.7-23.54,7.8a141,141,0,0,1-33,4.55,262.45,262.45,0,0,1-40.82-2.63s15.71,5,21.63,6.7c4,1.17,31.45,9.12,57.31,8.29a213.37,213.37,0,0,0,25.08-2.57l5.47-1c2.56-14.07-4.76,28.34-8.7,42l-2.82,9.73s8.87-7.66,12.6-11.16c10.33-9.7,17.76-22.12,32.63-47l4.55-7.6h0s5-3.28,5.83-3.79c7.86-5.09,25.3-13.56,29.74-16.7l.1-.07a4.24,4.24,0,0,0,.33-.28C522.68,88.28,523.42,84.42,523.42,84.42Z"/><path class="cls-2" d="M688.32,86.72c.2-1.08,1.26-6.88-2.22-11-2.32-2.77-5.4-3.49-5.9-3.36-.08,0-14.47,6.35-14.47,6.35s-17.7,8-18,8.08h0a17.54,17.54,0,0,1-9.44-1.65C624.59,78.77,608,70.48,608,70.48c-9.71-4.84-18-8.24-28.78-6.14h0s4.77,5.31,6.41,7.18A143,143,0,0,1,599.66,91c3.05,5,7.06,12.21,7.06,12.21l-7.57,3c-5.16,2-15.77,5.7-23.54,7.8a141,141,0,0,1-33,4.55,262.45,262.45,0,0,1-40.82-2.63s15.71,5,21.63,6.7c4,1.17,31.45,9.12,57.31,8.29a213.37,213.37,0,0,0,25.08-2.57l5.47-1c2.56-14.07-4.76,28.34-8.7,42l-2.82,9.73s8.87-7.66,12.6-11.16c10.33-9.7,17.76-22.12,32.63-47l4.55-7.6h0s5-3.28,5.83-3.79c7.86-5.09,25.3-13.56,29.74-16.7l.1-.07a4.24,4.24,0,0,0,.33-.28C687.58,90.58,688.32,86.72,688.32,86.72Z"/><path class="cls-2" d="M185.81,207.47c.2-1.08,1.26-6.88-2.22-11-2.32-2.77-5.4-3.49-5.9-3.36-.08,0-14.47,6.35-14.47,6.35s-17.7,8-18,8.08h0a17.54,17.54,0,0,1-9.44-1.65c-13.71-6.34-30.32-14.62-30.32-14.62-9.71-4.84-18-8.24-28.78-6.14h0s4.77,5.31,6.41,7.18a143,143,0,0,1,14.06,19.52c3.05,5,7.06,12.21,7.06,12.21l-7.57,3c-5.16,2-15.77,5.7-23.54,7.8a141,141,0,0,1-33,4.55A262.45,262.45,0,0,1-.68,236.68s15.71,5,21.63,6.7c4,1.17,31.45,9.12,57.31,8.29a213.37,213.37,0,0,0,25.08-2.57l5.47-1c2.56-14.07-4.76,28.34-8.7,42L97.3,299.8s8.87-7.66,12.6-11.16c10.33-9.7,17.76-22.12,32.63-47l4.55-7.6h0s5-3.28,5.83-3.79c7.86-5.09,25.3-13.56,29.74-16.7l.1-.07a4.24,4.24,0,0,0,.33-.28C185.07,211.32,185.81,207.47,185.81,207.47Z"/><path class="cls-2" d="M350.71,209.77c.2-1.08,1.26-6.88-2.22-11-2.32-2.77-5.4-3.49-5.9-3.36-.08,0-14.47,6.35-14.47,6.35s-17.7,8-18,8.08h0a17.54,17.54,0,0,1-9.44-1.65c-13.71-6.34-30.32-14.62-30.32-14.62-9.71-4.84-18-8.24-28.78-6.14h0s4.77,5.31,6.41,7.18a143,143,0,0,1,14.06,19.52c3.05,5,7.06,12.21,7.06,12.21l-7.57,3c-5.16,2-15.77,5.7-23.54,7.8a141,141,0,0,1-33,4.55A262.45,262.45,0,0,1,164.21,239s15.71,5,21.63,6.7c4,1.17,31.45,9.12,57.31,8.29a213.37,213.37,0,0,0,25.08-2.57l5.47-1c2.56-14.07-4.76,28.34-8.7,42l-2.82,9.73s8.87-7.66,12.6-11.16c10.33-9.7,17.76-22.12,32.63-47l4.55-7.6h0s5-3.28,5.83-3.79c7.86-5.09,25.3-13.56,29.74-16.7l.1-.07a4.24,4.24,0,0,0,.33-.28C350,213.62,350.71,209.77,350.71,209.77Z"/><path class="cls-2" d="M508.53,209.18c.2-1.08,1.26-6.88-2.22-11-2.32-2.77-5.4-3.49-5.9-3.36-.08,0-14.47,6.35-14.47,6.35s-17.7,8-18,8.08h0a17.54,17.54,0,0,1-9.44-1.65c-13.71-6.34-30.32-14.62-30.32-14.62-9.71-4.84-18-8.24-28.78-6.14h0s4.77,5.31,6.41,7.18a143,143,0,0,1,14.06,19.52c3.05,5,7.06,12.21,7.06,12.21l-7.57,3c-5.16,2-15.77,5.7-23.54,7.8a141,141,0,0,1-33,4.55A262.45,262.45,0,0,1,322,238.38s15.71,5,21.63,6.7c4,1.17,31.45,9.12,57.31,8.29a213.37,213.37,0,0,0,25.08-2.57l5.47-1c2.56-14.07-4.76,28.34-8.7,42L420,301.51s8.87-7.66,12.6-11.16c10.33-9.7,17.76-22.12,32.63-47l4.55-7.6h0s5-3.28,5.83-3.79c7.86-5.09,25.3-13.56,29.74-16.7l.1-.07a4.24,4.24,0,0,0,.33-.28C507.79,213,508.53,209.18,508.53,209.18Z"/><path class="cls-2" d="M673.43,211.47c.2-1.08,1.26-6.88-2.22-11-2.32-2.77-5.4-3.49-5.9-3.36-.08,0-14.47,6.35-14.47,6.35s-17.7,8-18,8.08h0a17.54,17.54,0,0,1-9.44-1.65c-13.71-6.34-30.32-14.62-30.32-14.62-9.71-4.84-18-8.24-28.78-6.14h0s4.77,5.31,6.41,7.18a143,143,0,0,1,14.06,19.52c3.05,5,7.06,12.21,7.06,12.21l-7.57,3c-5.16,2-15.77,5.7-23.54,7.8a141,141,0,0,1-33,4.55,262.45,262.45,0,0,1-40.82-2.63s15.71,5,21.63,6.7c4,1.17,31.45,9.12,57.31,8.29a213.37,213.37,0,0,0,25.08-2.57l5.47-1c2.56-14.07-4.76,28.34-8.7,42l-2.82,9.73s8.87-7.66,12.6-11.16c10.33-9.7,17.76-22.12,32.63-47l4.55-7.6h0s5-3.28,5.83-3.79c7.86-5.09,25.3-13.56,29.74-16.7l.1-.07a4.24,4.24,0,0,0,.33-.28C672.69,215.33,673.43,211.48,673.43,211.47Z"/><path class="cls-2" d="M185.32,340.61c.2-1.08,1.26-6.88-2.22-11-2.32-2.77-5.4-3.49-5.9-3.36-.08,0-14.47,6.35-14.47,6.35s-17.7,8-18,8.08h0a17.54,17.54,0,0,1-9.44-1.65C121.59,332.66,105,324.37,105,324.37c-9.71-4.84-18-8.24-28.78-6.14h0s4.77,5.31,6.41,7.18a143,143,0,0,1,14.06,19.52c3.05,5,7.06,12.21,7.06,12.21l-7.57,3c-5.16,2-15.77,5.7-23.54,7.8a141,141,0,0,1-33,4.55,262.45,262.45,0,0,1-40.82-2.63s15.71,5,21.63,6.7c4,1.17,31.45,9.12,57.31,8.29a213.37,213.37,0,0,0,25.08-2.57l5.47-1c2.56-14.07-4.76,28.34-8.7,42l-2.82,9.73s8.87-7.66,12.6-11.16c10.33-9.7,17.76-22.12,32.63-47l4.55-7.6h0s5-3.28,5.83-3.79c7.86-5.09,25.3-13.56,29.74-16.7l.1-.07a4.24,4.24,0,0,0,.33-.28C184.58,344.47,185.32,340.61,185.32,340.61Z"/><path class="cls-2" d="M350.22,342.91c.2-1.08,1.26-6.88-2.22-11-2.32-2.77-5.4-3.49-5.9-3.36-.08,0-14.47,6.35-14.47,6.35s-17.7,8-18,8.08h0a17.54,17.54,0,0,1-9.44-1.65c-13.71-6.34-30.32-14.62-30.32-14.62-9.71-4.84-18-8.24-28.78-6.14h0s4.77,5.31,6.41,7.18a143,143,0,0,1,14.06,19.52c3.05,5,7.06,12.21,7.06,12.21l-7.57,3c-5.16,2-15.77,5.7-23.54,7.8a141,141,0,0,1-33,4.55,262.45,262.45,0,0,1-40.82-2.63s15.71,5,21.63,6.7c4,1.17,31.45,9.12,57.31,8.29a213.37,213.37,0,0,0,25.08-2.57l5.47-1c2.56-14.07-4.76,28.34-8.7,42l-2.82,9.73s8.87-7.66,12.6-11.16c10.33-9.7,17.76-22.12,32.63-47l4.55-7.6h0s5-3.28,5.83-3.79c7.86-5.09,25.3-13.56,29.74-16.7l.1-.07a4.24,4.24,0,0,0,.33-.28C349.48,346.77,350.22,342.91,350.22,342.91Z"/><path class="cls-2" d="M508,342.32c.2-1.08,1.26-6.88-2.22-11-2.32-2.77-5.4-3.49-5.9-3.36-.08,0-14.47,6.35-14.47,6.35s-17.7,8-18,8.08h0a17.54,17.54,0,0,1-9.44-1.65c-13.71-6.34-30.32-14.62-30.32-14.62-9.71-4.84-18-8.24-28.78-6.14h0s4.77,5.31,6.41,7.18a143,143,0,0,1,14.06,19.52c3.05,5,7.06,12.21,7.06,12.21l-7.57,3c-5.16,2-15.77,5.7-23.54,7.8a141,141,0,0,1-33,4.55,262.45,262.45,0,0,1-40.82-2.63s15.71,5,21.63,6.7c4,1.17,31.45,9.12,57.31,8.29a213.37,213.37,0,0,0,25.08-2.57l5.47-1c2.56-14.07-4.76,28.34-8.7,42l-2.82,9.73s8.87-7.66,12.6-11.16c10.33-9.7,17.76-22.12,32.63-47l4.55-7.6h0s5-3.28,5.83-3.79c7.86-5.09,25.3-13.56,29.74-16.7l.1-.07a4.24,4.24,0,0,0,.33-.28C507.3,346.18,508,342.32,508,342.32Z"/><path class="cls-2" d="M672.93,344.62c.2-1.08,1.26-6.88-2.22-11-2.32-2.77-5.4-3.49-5.9-3.36-.08,0-14.47,6.35-14.47,6.35s-17.7,8-18,8.08h0a17.54,17.54,0,0,1-9.44-1.65c-13.71-6.34-30.32-14.62-30.32-14.62-9.71-4.84-18-8.24-28.78-6.14h0s4.77,5.31,6.41,7.18a143,143,0,0,1,14.06,19.52c3.05,5,7.06,12.21,7.06,12.21l-7.57,3c-5.16,2-15.77,5.7-23.54,7.8a141,141,0,0,1-33,4.55,262.45,262.45,0,0,1-40.82-2.63s15.71,5,21.63,6.7c4,1.17,31.45,9.12,57.31,8.29a213.37,213.37,0,0,0,25.08-2.57l5.47-1c2.56-14.07-4.76,28.34-8.7,42L584.42,437s8.87-7.66,12.6-11.16c10.33-9.7,17.76-22.12,32.63-47l4.55-7.6h0s5-3.28,5.83-3.79c7.86-5.09,25.3-13.56,29.74-16.7l.1-.07a4.24,4.24,0,0,0,.33-.28C672.19,348.48,672.93,344.62,672.93,344.62Z"/><path class="cls-2" d="M199.25,476.62c.2-1.08,1.26-6.88-2.22-11-2.32-2.77-5.4-3.49-5.9-3.36-.08,0-14.47,6.35-14.47,6.35s-17.7,8-18,8.08h0a17.54,17.54,0,0,1-9.44-1.65c-13.71-6.34-30.32-14.62-30.32-14.62-9.71-4.84-18-8.24-28.78-6.14h0s4.77,5.31,6.41,7.18a143,143,0,0,1,14.06,19.52c3.05,5,7.06,12.21,7.06,12.21l-7.57,3c-5.16,2-15.77,5.7-23.54,7.8a141,141,0,0,1-33,4.55,262.45,262.45,0,0,1-40.82-2.63s15.71,5,21.63,6.7c4,1.17,31.45,9.12,57.31,8.29a213.37,213.37,0,0,0,25.08-2.57l5.47-1c2.56-14.07-4.76,28.34-8.7,42L110.74,569s8.87-7.66,12.6-11.16c10.33-9.7,17.76-22.12,32.63-47l4.55-7.6h0s5-3.28,5.83-3.79c7.86-5.09,25.3-13.56,29.74-16.7l.1-.07a4.24,4.24,0,0,0,.33-.28C198.51,480.48,199.25,476.62,199.25,476.62Z"/><path class="cls-2" d="M364.15,478.92c.2-1.08,1.26-6.88-2.22-11-2.32-2.77-5.4-3.49-5.9-3.36-.08,0-14.47,6.35-14.47,6.35s-17.7,8-18,8.08h0a17.54,17.54,0,0,1-9.44-1.65c-13.71-6.34-30.32-14.62-30.32-14.62-9.71-4.84-18-8.24-28.78-6.14h0s4.77,5.31,6.41,7.18a143,143,0,0,1,14.06,19.52c3.05,5,7.06,12.21,7.06,12.21l-7.57,3c-5.16,2-15.77,5.7-23.54,7.8a141,141,0,0,1-33,4.55,262.45,262.45,0,0,1-40.82-2.63s15.71,5,21.63,6.7c4,1.17,31.45,9.12,57.31,8.29a213.37,213.37,0,0,0,25.08-2.57l5.47-1c2.56-14.07-4.76,28.34-8.7,42l-2.82,9.73s8.87-7.66,12.6-11.16c10.33-9.7,17.76-22.12,32.63-47l4.55-7.6h0s5-3.28,5.83-3.79c7.86-5.09,25.3-13.56,29.74-16.7l.1-.07a4.24,4.24,0,0,0,.33-.28C363.41,482.78,364.15,478.92,364.15,478.92Z"/><path class="cls-2" d="M522,478.33c.2-1.08,1.26-6.88-2.22-11-2.32-2.77-5.4-3.49-5.9-3.36-.08,0-14.47,6.35-14.47,6.35s-17.7,8-18,8.08h0a17.54,17.54,0,0,1-9.44-1.65c-13.71-6.34-30.32-14.62-30.32-14.62-9.71-4.84-18-8.24-28.78-6.14h0s4.77,5.31,6.41,7.18a143,143,0,0,1,14.06,19.52c3.05,5,7.06,12.21,7.06,12.21l-7.57,3c-5.16,2-15.77,5.7-23.54,7.8a141,141,0,0,1-33,4.55,262.45,262.45,0,0,1-40.82-2.63s15.71,5,21.63,6.7c4,1.17,31.45,9.12,57.31,8.29A213.37,213.37,0,0,0,439.49,520l5.47-1c2.56-14.07-4.76,28.34-8.7,42l-2.82,9.73s8.87-7.66,12.6-11.16c10.33-9.7,17.76-22.12,32.63-47l4.55-7.6h0s5-3.28,5.83-3.79c7.86-5.09,25.3-13.56,29.74-16.7l.1-.07a4.24,4.24,0,0,0,.33-.28C521.23,482.18,522,478.33,522,478.33Z"/><path class="cls-2" d="M686.86,480.63c.2-1.08,1.26-6.88-2.22-11-2.32-2.77-5.4-3.49-5.9-3.36-.08,0-14.47,6.35-14.47,6.35s-17.7,8-18,8.08h0a17.54,17.54,0,0,1-9.44-1.65c-13.71-6.34-30.32-14.62-30.32-14.62-9.71-4.84-18-8.24-28.78-6.14h0s4.77,5.31,6.41,7.18a143,143,0,0,1,14.06,19.52c3.05,5,7.06,12.21,7.06,12.21l-7.57,3c-5.16,2-15.77,5.7-23.54,7.8a141,141,0,0,1-33,4.55,262.45,262.45,0,0,1-40.82-2.63s15.71,5,21.63,6.7c4,1.17,31.45,9.12,57.31,8.29a213.37,213.37,0,0,0,25.08-2.57l5.47-1c2.56-14.07-4.76,28.34-8.7,42L598.35,573s8.87-7.66,12.6-11.16c10.33-9.7,17.76-22.12,32.63-47l4.55-7.6h0s5-3.28,5.83-3.79c7.86-5.09,25.3-13.56,29.74-16.7l.1-.07a4.24,4.24,0,0,0,.33-.28C686.12,484.48,686.86,480.63,686.86,480.63Z"/><path class="cls-2" d="M203.17,609.75c.2-1.08,1.26-6.88-2.22-11-2.32-2.77-5.4-3.49-5.9-3.36-.08,0-14.47,6.35-14.47,6.35s-17.7,8-18,8.08h0a17.54,17.54,0,0,1-9.44-1.65c-13.71-6.34-30.32-14.62-30.32-14.62-9.71-4.84-18-8.24-28.78-6.14h0s4.77,5.31,6.41,7.18a143,143,0,0,1,14.06,19.52c3.05,5,7.06,12.21,7.06,12.21l-7.57,3c-5.16,2-15.77,5.7-23.54,7.8a141,141,0,0,1-33,4.55A262.45,262.45,0,0,1,16.67,639s15.71,5,21.63,6.7c4,1.17,31.45,9.12,57.31,8.29a213.37,213.37,0,0,0,25.08-2.57l5.47-1c2.56-14.07-4.76,28.34-8.7,42l-2.82,9.73s8.87-7.66,12.6-11.16c10.33-9.7,17.76-22.12,32.63-47l4.55-7.6h0s5-3.28,5.83-3.79c7.86-5.09,25.3-13.56,29.74-16.7l.1-.07a4.24,4.24,0,0,0,.33-.28C202.43,613.61,203.17,609.75,203.17,609.75Z"/><path class="cls-2" d="M368.06,612c.2-1.08,1.26-6.88-2.22-11-2.32-2.77-5.4-3.49-5.9-3.36-.08,0-14.47,6.35-14.47,6.35s-17.7,8-18,8.08h0a17.54,17.54,0,0,1-9.44-1.65c-13.71-6.34-30.32-14.62-30.32-14.62-9.71-4.84-18-8.24-28.78-6.14h0s4.77,5.31,6.41,7.18a143,143,0,0,1,14.06,19.52c3.05,5,7.06,12.21,7.06,12.21l-7.57,3c-5.16,2-15.77,5.7-23.54,7.8a141,141,0,0,1-33,4.55,262.45,262.45,0,0,1-40.82-2.63s15.71,5,21.63,6.7c4,1.17,31.45,9.12,57.31,8.29a213.37,213.37,0,0,0,25.08-2.57l5.47-1c2.56-14.07-4.76,28.34-8.7,42l-2.82,9.73s8.87-7.66,12.6-11.16c10.33-9.7,17.76-22.12,32.63-47l4.55-7.6h0s5-3.28,5.83-3.79c7.86-5.09,25.3-13.56,29.74-16.7l.1-.07a4.24,4.24,0,0,0,.33-.28C367.32,615.91,368.06,612.05,368.06,612Z"/><path class="cls-2" d="M525.88,611.46c.2-1.08,1.26-6.88-2.22-11-2.32-2.77-5.4-3.49-5.9-3.36-.08,0-14.47,6.35-14.47,6.35s-17.7,8-18,8.08h0a17.54,17.54,0,0,1-9.44-1.65c-13.71-6.34-30.32-14.62-30.32-14.62-9.71-4.84-18-8.24-28.78-6.14h0s4.77,5.31,6.41,7.18a143,143,0,0,1,14.06,19.52c3.05,5,7.06,12.21,7.06,12.21l-7.57,3c-5.16,2-15.77,5.7-23.54,7.8a141,141,0,0,1-33,4.55,262.45,262.45,0,0,1-40.82-2.63s15.71,5,21.63,6.7c4,1.17,31.45,9.12,57.31,8.29a213.37,213.37,0,0,0,25.08-2.57l5.47-1c2.56-14.07-4.76,28.34-8.7,42l-2.82,9.73s8.87-7.66,12.6-11.16c10.33-9.7,17.76-22.12,32.63-47l4.55-7.6h0s5-3.28,5.83-3.79c7.86-5.09,25.3-13.56,29.74-16.7l.1-.07a4.24,4.24,0,0,0,.33-.28C525.14,615.31,525.88,611.46,525.88,611.46Z"/><path class="cls-2" d="M690.78,613.76c.2-1.08,1.26-6.88-2.22-11-2.32-2.77-5.4-3.49-5.9-3.36-.08,0-14.47,6.35-14.47,6.35s-17.7,8-18,8.08h0a17.54,17.54,0,0,1-9.44-1.65c-13.71-6.34-30.32-14.62-30.32-14.62-9.71-4.84-18-8.24-28.78-6.14h0s4.77,5.31,6.41,7.18a143,143,0,0,1,14.06,19.52c3.05,5,7.06,12.21,7.06,12.21l-7.57,3c-5.16,2-15.77,5.7-23.54,7.8a141,141,0,0,1-33,4.55A262.45,262.45,0,0,1,504.28,643s15.71,5,21.63,6.7c4,1.17,31.45,9.12,57.31,8.29a213.37,213.37,0,0,0,25.08-2.57l5.47-1c2.56-14.07-4.76,28.34-8.7,42l-2.82,9.73s8.87-7.66,12.6-11.16c10.33-9.7,17.76-22.12,32.63-47l4.55-7.6h0s5-3.28,5.83-3.79c7.86-5.09,25.3-13.56,29.74-16.7l.1-.07a4.24,4.24,0,0,0,.33-.28C690,617.61,690.78,613.76,690.78,613.76Z"/></g><g id="Layer_2" data-name="Layer 2"><path class="cls-3" d="M199.77,689.06c-62.43-41-46.84-146.69-37.56-209.62,10.39-70.43,24-162.65,103.24-218.94,16.36-11.62,56.46-40.09,107.43-35.2,12.49,1.2,42,6,80.39,37.6C541.89,336,555,449.65,559.65,497c5.48,55.49,17.3,175.21-52.54,213.68-10,5.5-22.86,7.67-48.6,12-91.08,15.33-167.31-5.24-212.78-18C219.86,697.4,206.93,693.77,199.77,689.06Z"/><path class="cls-4" d="M437,295.2a24,24,0,0,0-5.38-7.46,27,27,0,0,0-10.24-6c3.11-1.26,6.58-2.52,10.39-3.67A120.43,120.43,0,0,1,444.46,275a58,58,0,0,1-2.85,10.6A59.77,59.77,0,0,1,437,295.2Z"/><path class="cls-4" d="M305.31,277.4a27.3,27.3,0,0,0-8.65,4.17,24.56,24.56,0,0,0-7.49,8.73,95.47,95.47,0,0,1-3-9.81,94.2,94.2,0,0,1-2.12-11.82,72.65,72.65,0,0,1,11.27,3.63A70.26,70.26,0,0,1,305.31,277.4Z"/><path class="cls-4" d="M257.07,319.86a25.29,25.29,0,0,0-6.82,6.4,22.87,22.87,0,0,0-4.18,10.42,102,102,0,0,1-6.15-8.49,99.32,99.32,0,0,1-6-10.65,74.34,74.34,0,0,1,23.15,2.32Z"/><path class="cls-4" d="M232.82,373.59a22.6,22.6,0,0,0-2.82,8.56,22.29,22.29,0,0,0,1.55,11c-3.05-1.37-6.33-3-9.74-4.94a112.46,112.46,0,0,1-10.7-6.91,71.1,71.1,0,0,1,10.74-4.79A73.23,73.23,0,0,1,232.82,373.59Z"/><path class="cls-4" d="M473.45,336.82a22.47,22.47,0,0,0-2.63-8.61,24.93,24.93,0,0,0-7.76-8.53c3.38-.34,7.1-.56,11.12-.6a122.33,122.33,0,0,1,13.09.6A61.67,61.67,0,0,1,481,329,64.57,64.57,0,0,1,473.45,336.82Z"/><path class="cls-4" d="M490.5,393a22.16,22.16,0,0,0,1.28-8.86,22.74,22.74,0,0,0-3.47-10.63c3.26.91,6.78,2,10.48,3.44a116.64,116.64,0,0,1,11.78,5.25,68.55,68.55,0,0,1-9.75,6.31A71.29,71.29,0,0,1,490.5,393Z"/><path class="cls-5" d="M302.15,440c130.4-4.32,153.85,14.23,169.3-4,29.78-35-15.54-153-100.14-160.66-42.85-3.86-84.81,21.57-105.74,52.94-22.45,33.64-28.19,85.08-3.1,104C274.07,441.11,288.7,440.43,302.15,440Z"/><ellipse class="cls-6" cx="305.31" cy="352.7" rx="27.08" ry="24.75"/><ellipse class="cls-6" cx="415.54" cy="352.39" rx="27.08" ry="24.75"/><path class="cls-7" d="M403.52,392.47l14.67-1L438,390.2"/><path class="cls-7" d="M286.88,390.25l14.68.92,19.85,1.24"/><path class="cls-8" d="M267.46,485.61c18.75-11.17,34.26,7.8,92.5,9.47,61.73,1.76,79.6-18.54,98.77-5.92,35.34,23.27,25.36,125.69-34.86,158.82C400,661.12,372.35,661.06,364.74,661c-7.33,0-45.07-.67-74.54-21.77C235,599.79,233.07,506.09,267.46,485.61Z"/><path class="cls-4" d="M250.09,436.83a25.36,25.36,0,0,0,7,6.22,28.13,28.13,0,0,0,11.4,3.8c-2.74,1.85-5.83,3.76-9.28,5.63A116.11,116.11,0,0,1,247.59,458a57,57,0,0,1,.28-10.92A57.67,57.67,0,0,1,250.09,436.83Z"/><path class="cls-4" d="M459.66,453.08a28.34,28.34,0,0,0,9.46-2.27,26.08,26.08,0,0,0,9.46-7,93.51,93.51,0,0,1-.38,22.12,69.43,69.43,0,0,1-10.08-5.87A66.42,66.42,0,0,1,459.66,453.08Z"/><path class="cls-4" d="M353.19,452.9a28.32,28.32,0,0,0,9.48,2.17,28.64,28.64,0,0,0,12-1.94,98.94,98.94,0,0,1-4.94,9.12,101.6,101.6,0,0,1-7,10.1,61,61,0,0,1-5.74-9.58A58.78,58.78,0,0,1,353.19,452.9Z"/><path class="cls-4" d="M375.87,265.44a28.5,28.5,0,0,0-21.42.89,97.72,97.72,0,0,1,4.36-9.37,100.18,100.18,0,0,1,6.41-10.45,61.85,61.85,0,0,1,6.33,9.26A59.41,59.41,0,0,1,375.87,265.44Z"/><path class="cls-9" d="M285.44,621.73c-.83,9.74,74,42.9,128.7,13,52.14-28.49,58.54-99.27,47.86-104.25-9.48-4.42-28.47,44.82-90,71.6C324.23,622.86,286,614.84,285.44,621.73Z"/><ellipse cx="304.15" cy="352.1" rx="17.4" ry="15.9"/><ellipse cx="415.54" cy="351.79" rx="17.4" ry="15.9"/><path class="cls-10" d="M362.67,377c-3.58-1-6.5.26-6.87,1.57s1.44,3.44,4.72,4.31"/><path class="cls-11" d="M350.78,409a12.19,12.19,0,0,0,11.51,13.66c6.67.18,13.31-6,12.27-13.66"/><path class="cls-6" d="M302.51,341.49c-.53-1-6-.72-8.78,2.29-2.27,2.43-2.48,6.23-1.46,6.69.45.2,1-.3,5-3.82C302.26,342.24,302.69,341.83,302.51,341.49Z"/><path class="cls-6" d="M414.35,341c-.53-1-6-.72-8.78,2.29-2.27,2.43-2.48,6.23-1.46,6.69.45.2,1-.3,5-3.82C414.1,341.79,414.53,341.38,414.35,341Z"/></g><g id="Layer_4" data-name="Layer 4"><path class="cls-6" d="M-25.9-36.21V756.06H766.25V-36.21ZM355.76,695.37c-176.83,0-320.17-140.47-320.17-313.74S178.93,67.89,355.76,67.89,675.93,208.35,675.93,381.63,532.59,695.37,355.76,695.37Z"/></g></svg>