<svg id="Layer_1" data-name="Layer 1" xmlns="http://www.w3.org/2000/svg" viewBox="0 0 342.79 385.71"><defs><style>.cls-1{fill:#ffe149;}.cls-2{fill:red;stroke:red;}.cls-12,.cls-13,.cls-2,.cls-4,.cls-6,.cls-9{stroke-linecap:round;}.cls-13,.cls-2{stroke-linejoin:round;}.cls-3{fill:#ffebca;}.cls-12,.cls-13,.cls-4,.cls-6,.cls-9{fill:none;}.cls-12,.cls-13,.cls-4{stroke:#ffebca;}.cls-12,.cls-4,.cls-6,.cls-8,.cls-9{stroke-miterlimit:10;}.cls-4{stroke-width:19px;}.cls-5{fill:#fff;}.cls-6{stroke:#ffcfd4;stroke-width:12px;}.cls-7{fill:#99d4ff;}.cls-8,.cls-9{stroke:#000;stroke-width:2px;}.cls-10{fill:#99d479;}.cls-11{fill:#75bc57;}.cls-12{stroke-width:16px;}.cls-13{stroke-width:5px;}</style></defs><title>boisurprised</title><path class="cls-1" d="M255.16,492.59C216.08,464.49,225.83,392.12,231.64,349c6.5-48.25,15-111.41,64.63-150,10.24-8,35.35-27.46,67.26-24.11,7.82.82,26.32,4.09,50.33,25.76,55.48,50.07,63.68,127.91,66.6,160.34,3.43,38,10.83,120-32.89,146.36-6.26,3.77-14.31,5.25-30.42,8.22-57,10.5-104.74-3.59-133.21-12.33C267.74,498.31,259.64,495.82,255.16,492.59Z" transform="translate(-185.34 -174.55)"/><path class="cls-2" d="M403.7,222.81a16.43,16.43,0,0,0-9.78-9.19c1.95-.87,4.12-1.73,6.5-2.51a70.05,70.05,0,0,1,7.93-2.11,42.72,42.72,0,0,1-4.65,13.82Z" transform="translate(-185.34 -174.55)"/><path class="cls-2" d="M321.24,210.62a16.43,16.43,0,0,0-10.1,8.84c-.67-2-1.32-4.27-1.87-6.72a70.05,70.05,0,0,1-1.33-8.1,42.72,42.72,0,0,1,13.3,6Z" transform="translate(-185.34 -174.55)"/><path class="cls-2" d="M291,239.7a16.43,16.43,0,0,0-6.89,11.52c-1.26-1.72-2.57-3.65-3.85-5.82a70.05,70.05,0,0,1-3.76-7.29A42.72,42.72,0,0,1,291,239.7Z" transform="translate(-185.34 -174.55)"/><path class="cls-2" d="M275.85,276.5a16.43,16.43,0,0,0-.8,13.4c-1.91-.94-4-2.06-6.1-3.38a70.05,70.05,0,0,1-6.7-4.74,42.72,42.72,0,0,1,13.59-5.28Z" transform="translate(-185.34 -174.55)"/><path class="cls-2" d="M426.5,251.32A16.43,16.43,0,0,0,420,239.58c2.12-.23,4.45-.39,7-.41a70.05,70.05,0,0,1,8.2.41,42.72,42.72,0,0,1-8.65,11.74Z" transform="translate(-185.34 -174.55)"/><path class="cls-2" d="M437.4,288.51a16.43,16.43,0,0,0-.11-13.42c2,.81,4.09,1.79,6.31,3a70.05,70.05,0,0,1,7,4.28,42.72,42.72,0,0,1-13.21,6.18Z" transform="translate(-185.34 -174.55)"/><path class="cls-3" d="M319.26,322c49.49,5.19,61.52,5.69,78,4.06,15.55-1.54,23.41-2.4,28-6.77,15.44-14.82,6.51-51.62-9-74.42-5.25-7.71-22.4-32.88-53.67-35.63-30.07-2.65-54.5,17.08-66.2,36.26-14.06,23-17.65,58.28-1.94,71.27C297.9,319.64,300.65,320,319.26,322Z" transform="translate(-185.34 -174.55)"/><path class="cls-4" d="M291.51,497.27a64.79,64.79,0,0,1,1,13.61,85.93,85.93,0,0,1-1,9.83c-.52,3.8-1.29,9.56-2.24,16.87" transform="translate(-185.34 -174.55)"/><circle class="cls-5" cx="135.9" cy="87.65" r="16.95"/><circle class="cls-5" cx="204.9" cy="87.43" r="16.95"/><path class="cls-6" d="M382.71,289.44l9.19-.66,12.43-.89" transform="translate(-185.34 -174.55)"/><path class="cls-6" d="M309.7,287.92l9.19.63,12.43.85" transform="translate(-185.34 -174.55)"/><path class="cls-7" d="M304.39,525.32c.2-4.1.79-5-.11-6.18-1.79-2.4-5.47-.67-13.59-1.21-7.7-.52-11.51-2.55-13-.59-.5.67-.26,2.43.24,5.92.72,5,1.41,6.83.49,7.69s-2.31.2-3.91-.3a19.09,19.09,0,0,0-12.23.59c-4.61,2-8.28,8-7.38,13.44a12.7,12.7,0,0,0,4.91,7.61c6.28,4.9,11,.39,26.27,2.7,6.47,1,10.56,2.53,14.24,0a13.41,13.41,0,0,0,4.28-5.71c.73-1.83.89-3.44.81-7.41C305.26,532.21,304.1,531.41,304.39,525.32Z" transform="translate(-185.34 -174.55)"/><path class="cls-4" d="M409.2,500a64.79,64.79,0,0,1,1,13.61,85.93,85.93,0,0,1-1,9.83c-.52,3.8-1.29,9.56-2.24,16.87" transform="translate(-185.34 -174.55)"/><path class="cls-2" d="M286.66,319.82a16.43,16.43,0,0,0,11.53,6.87c-1.71,1.27-3.65,2.57-5.81,3.86a70.05,70.05,0,0,1-7.29,3.77,42.72,42.72,0,0,1,1.57-14.5Z" transform="translate(-185.34 -174.55)"/><path class="cls-2" d="M417.86,331a16.43,16.43,0,0,0,11.84-6.32c.2,2.12.32,4.45.3,7a70.05,70.05,0,0,1-.54,8.19,42.72,42.72,0,0,1-11.6-8.84Z" transform="translate(-185.34 -174.55)"/><path class="cls-2" d="M351.2,332.83a16.43,16.43,0,0,0,13.42.16c-.85,2-1.87,4.06-3.09,6.25a70.05,70.05,0,0,1-4.41,6.92,42.72,42.72,0,0,1-5.92-13.33Z" transform="translate(-185.34 -174.55)"/><path class="cls-2" d="M365.41,202.42A16.43,16.43,0,0,0,352,203c.74-2,1.63-4.16,2.73-6.42a70.05,70.05,0,0,1,4-7.16,42.72,42.72,0,0,1,6.67,13Z" transform="translate(-185.34 -174.55)"/><circle cx="135.16" cy="87.24" r="10.89"/><circle cx="204.9" cy="87.02" r="10.89"/><circle class="cls-8" cx="171.94" cy="128.72" r="8.5"/><path class="cls-9" d="M357.14,278.85c-2.24-.66-4.07.18-4.3,1.07s.9,2.36,3,3" transform="translate(-185.34 -174.55)"/><path class="cls-7" d="M422.89,529.22c.2-4.1.79-5-.11-6.18-1.79-2.4-5.47-.67-13.59-1.21-7.7-.52-11.51-2.55-13-.59-.5.67-.26,2.43.24,5.92.72,5,1.41,6.83.49,7.69s-2.31.2-3.91-.3a19.09,19.09,0,0,0-12.23.59c-4.61,2-8.28,8-7.38,13.44a12.7,12.7,0,0,0,4.91,7.61c6.28,4.9,11,.39,26.27,2.7,6.47,1,10.56,2.53,14.24,0a13.41,13.41,0,0,0,4.28-5.71c.73-1.83.89-3.44.81-7.41C423.75,536.11,422.59,535.31,422.89,529.22Z" transform="translate(-185.34 -174.55)"/><path class="cls-10" d="M293.72,362.83c11.74-7.65,21.45,5.34,57.91,6.48,38.64,1.21,49.83-12.7,61.84-4.06,22.13,15.94,15.88,86.09-21.82,108.79-15,9-32.25,9-37,9-4.59,0-28.21-.46-46.67-14.91C273.42,441,272.19,376.86,293.72,362.83Z" transform="translate(-185.34 -174.55)"/><path class="cls-11" d="M306.48,456c-.52,6.67,46.33,29.39,80.57,8.91,32.64-19.52,36.65-68,30-71.41-5.94-3-17.82,30.7-56.36,49C330.76,456.75,306.84,451.26,306.48,456Z" transform="translate(-185.34 -174.55)"/><path class="cls-12" d="M242.31,358.83a60.59,60.59,0,0,1-24.39-13.42,51,51,0,0,1-14.28-22.19" transform="translate(-185.34 -174.55)"/><path class="cls-13" d="M196.21,322.72c-4.56-3.29-8.64-6.41-8.35-6.86.41-.65,9.37,5.37,11,3.58,2-2.15-7.48-14.36-7-14.67s6.77,10.4,10.32,9.3c3.4-1,3.17-12.51,3-12.53s-3.26,14.62,0,16.11c2.75,1.26,9.07-7.26,9.55-6.86s-2.7,4.48-6.56,9.55" transform="translate(-185.34 -174.55)"/><path class="cls-12" d="M461,374.81c6.1-1.45,18.07-5,29-13.42s15.23-17.57,17-22.19" transform="translate(-185.34 -174.55)"/><path class="cls-13" d="M515.69,338.69c5.42-3.29,10.26-6.41,9.92-6.86-.49-.65-11.12,5.37-13.11,3.58-2.38-2.15,8.88-14.36,8.36-14.67s-8,10.4-12.26,9.3c-4-1-3.76-12.51-3.54-12.53s3.88,14.62,0,16.11c-3.27,1.26-10.77-7.26-11.34-6.86-.39.28,3.21,4.48,7.79,9.55" transform="translate(-185.34 -174.55)"/><path class="cls-5" d="M319.16,253.85c-.33-.68-3.73-.49-5.5,1.57-1.42,1.66-1.55,4.27-.92,4.58.28.14.65-.21,3.14-2.62C319,254.36,319.27,254.08,319.16,253.85Z" transform="translate(-185.34 -174.55)"/><path class="cls-5" d="M389.49,253.85c-.33-.68-3.73-.49-5.5,1.57-1.42,1.66-1.55,4.27-.92,4.58.28.14.65-.21,3.14-2.62C389.33,254.36,389.6,254.08,389.49,253.85Z" transform="translate(-185.34 -174.55)"/><path class="cls-5" d="M351.55,297c.14-.25.29-.38,1.53-1.11,1-.6,1.15-.67,1.29-.59s.21.34.16,1.91-.08,1.54-.17,1.67c-.6.94-2.48,1.1-3,.45-.16-.23-.15-.53-.11-1.12A2.65,2.65,0,0,1,351.55,297Z" transform="translate(-185.34 -174.55)"/><path class="cls-5" d="M360.28,295.32c.2-.1.35.06,1.84,1,.45.27.61.37.76.6a2.41,2.41,0,0,1,.22,1.3c0,.79,0,1.18-.17,1.37s-1,.22-1.4.13a2.13,2.13,0,0,1-1.32-.63c-.35-.42-.32-1.05-.24-2.3C360,295.87,360,295.43,360.28,295.32Z" transform="translate(-185.34 -174.55)"/></svg>