<svg xmlns="http://www.w3.org/2000/svg" xmlns:xlink="http://www.w3.org/1999/xlink" viewBox="0 0 562 562"><defs><style>.cls-1{isolation:isolate;}.cls-2{mix-blend-mode:hue;fill:url(#linear-gradient);}.cls-3{fill:#fff;stroke:#fff;stroke-miterlimit:10;stroke-width:4px;}</style><linearGradient id="linear-gradient" y1="281" x2="562" y2="281" gradientUnits="userSpaceOnUse"><stop offset="0" stop-color="#29abe2"/><stop offset="0.03" stop-color="#25a5de"/><stop offset="0.18" stop-color="#1189cb"/><stop offset="0.3" stop-color="#0477c0"/><stop offset="0.4" stop-color="#0071bc"/><stop offset="1" stop-color="#fff"/></linearGradient></defs><title>facebooklogo</title><g class="cls-1"><g id="Layer_3" data-name="Layer 3"><rect class="cls-2" width="562" height="562" rx="12" ry="12"/></g><g id="f_outline" data-name="f outline"><path class="cls-3" d="M328.56,278,284.8,278l.09-41.51,43.64-.08c0-10.43,0-18.92-.12-24.66-.23-17.42-.61-21.8.12-30.86.64-7.89,1.22-14.61,3.76-23.07,1.24-4.11,4.26-14,10.2-22,13-17.68,36.83-20.67,54.27-22.85a135.59,135.59,0,0,1,36.32.41v48.56a84.4,84.4,0,0,0-14.94-1.31c-9.91,0-23.54,0-30.67,8-4.19,4.68-4.57,10.36-5,18.21-.94,18-1.53,34.55-1.88,49.65l52.73,0,.15,41.37h-53q.11,135.52.21,271l-51.6-.85Z" transform="translate(-115 -48)"/></g></g></svg>