<svg xmlns="http://www.w3.org/2000/svg" xmlns:xlink="http://www.w3.org/1999/xlink" viewBox="0 0 562 564.54"><defs><style>.cls-1{isolation:isolate;}.cls-2{mix-blend-mode:hue;fill:url(#linear-gradient);}.cls-3{fill:#fff;stroke:#fff;stroke-miterlimit:10;stroke-width:4px;}</style><linearGradient id="linear-gradient" y1="281" x2="562" y2="281" gradientUnits="userSpaceOnUse"><stop offset="0" stop-color="#29abe2"/><stop offset="0.1" stop-color="#1a95d4"/><stop offset="0.22" stop-color="#0b81c7"/><stop offset="0.34" stop-color="#0375bf"/><stop offset="0.46" stop-color="#0071bc"/><stop offset="0.55" stop-color="#076dc1"/><stop offset="0.69" stop-color="#1963cf"/><stop offset="0.86" stop-color="#3752e6"/><stop offset="1" stop-color="#583fff"/></linearGradient></defs><title>facebooklogo</title><g class="cls-1"><g id="Layer_3" data-name="Layer 3"><rect class="cls-2" width="562" height="562" rx="56.65" ry="56.65"/></g><g id="f_outline" data-name="f outline"><path class="cls-3" d="M440.71,330.4l-58.43.09.12-42.92,58.27-.09c.05-10.78-.05-19.56-.16-25.5-.31-18-.81-22.54.16-31.91.85-8.16,1.62-15.11,5-23.85,1.65-4.25,5.69-14.46,13.62-22.78,17.41-18.29,49.17-21.37,72.46-23.63a233.32,233.32,0,0,1,48.49.42v50.21a144.66,144.66,0,0,0-19.95-1.36c-13.23,0-31.43,0-41,8.26-5.6,4.84-6.1,10.71-6.65,18.83-1.26,18.56-2,35.72-2.51,51.34l70.4,0,.2,42.77H510q.14,140.13.29,280.25l-68.89-.87Z" transform="translate(-115 -48)"/></g></g></svg>