<svg xmlns="http://www.w3.org/2000/svg" xmlns:xlink="http://www.w3.org/1999/xlink" viewBox="0 0 562 562"><defs><style>.cls-1{isolation:isolate;}.cls-2{mix-blend-mode:hue;fill:url(#linear-gradient);}.cls-3{fill:#fff;}</style><linearGradient id="linear-gradient" y1="281" x2="562" y2="281" gradientUnits="userSpaceOnUse"><stop offset="0" stop-color="#64dbfb"/><stop offset="0.09" stop-color="#41c1f1"/><stop offset="0.18" stop-color="#25abe9"/><stop offset="0.27" stop-color="#109ce4"/><stop offset="0.37" stop-color="#0493e0"/><stop offset="0.46" stop-color="#0090df"/><stop offset="0.55" stop-color="#0790e1"/><stop offset="0.69" stop-color="#1990e8"/><stop offset="0.86" stop-color="#3791f3"/><stop offset="1" stop-color="#5891ff"/></linearGradient></defs><title>twitterlogo</title><g class="cls-1"><g id="Layer_3" data-name="Layer 3"><rect class="cls-2" width="562" height="562" rx="56.34" ry="56.34"/></g><g id="Layer_2" data-name="Layer 2"><path class="cls-3" d="M395.58,482.13a223.88,223.88,0,0,0,23.77-19.81c11.91-11.41,46.31-45.22,60.79-100.74a204,204,0,0,0,6.06-64.66,96.81,96.81,0,0,0,10.61-8.08A99.29,99.29,0,0,0,519,260.55,92.44,92.44,0,0,1,505.3,267,69.85,69.85,0,0,1,493,270.57a64.72,64.72,0,0,1-11.8,1.09,62.92,62.92,0,0,0,7-4.94c13.7-11.1,19.8-25.63,22.62-35-4.67,2.71-8.69,4.71-11.59,6.07,0,0-15.68,7.37-28.64,9.93l-4.19.83a48.67,48.67,0,0,0-4.69-5.52,52.44,52.44,0,0,0-17.11-11.31,72.11,72.11,0,0,0-28.69-6.07c-4.24,0-27.84.62-46.9,18.76-10.65,10.14-15.11,21.21-17.38,27a67.18,67.18,0,0,0-5.25,27.87,63.5,63.5,0,0,0,2.49,15.45c-1.77,0-4.41-.09-7.59-.3a148.49,148.49,0,0,1-35.13-6.77c-36.61-11.2-64.76-33-64.76-33a195.33,195.33,0,0,1-36-36.4,64.88,64.88,0,0,0-5.5,10.58A78.07,78.07,0,0,0,195.67,284c3.51,29,25.86,47.8,30.05,51.22a51.53,51.53,0,0,1-8-.42,54.31,54.31,0,0,1-23.7-9.31,81.08,81.08,0,0,0,1.27,13.12c.91,5.06,3.88,18.76,12.7,31.32,14,20,35.54,26.6,42.2,28.38a31.69,31.69,0,0,1-5.77,2.52c-11,3.55-21.1.1-25.6-1.8a73.89,73.89,0,0,0,5.41,12.62,79.33,79.33,0,0,0,20.91,24.16c6.15,4.77,14.75,11.45,27.76,13.7a52,52,0,0,0,10.82.72c-1.11,1.23-2.83,3-5,5-12,11-24.6,15.22-33.17,18-26.26,8.6-55.16,7.9-63.46,7.57a150.41,150.41,0,0,0,14.06,9.74c46.46,28.4,96.09,23.78,112.86,22A203.61,203.61,0,0,0,395.58,482.13Z" transform="translate(-69.52 -88.79)"/></g></g></svg>