<svg id="Layer_1" data-name="Layer 1" xmlns="http://www.w3.org/2000/svg" viewBox="0 0 509.78 84.92"><defs><style>.cls-1{fill:#73d1ff;}.cls-2{fill:#ffff4b;}.cls-10,.cls-3{font-size:57.88px;font-family:HelveticaNeue-BoldItalic, Helvetica Neue;font-weight:700;}.cls-10,.cls-4,.cls-5,.cls-6,.cls-7,.cls-8{font-style:italic;}.cls-5{letter-spacing:-0.02em;}.cls-6{letter-spacing:-0.07em;}.cls-7{letter-spacing:-0.09em;}.cls-8{letter-spacing:0em;}.cls-9{font-family:HelveticaNeue-Bold, Helvetica Neue;letter-spacing:0em;}</style></defs><title>wheresyaboi</title><path class="cls-1" d="M214,354.58c.12-.66.77-4.25-1.53-6.84a6,6,0,0,0-3.88-2.12l-9.41,3.82s-11.5,4.83-11.69,4.87h0a12.16,12.16,0,0,1-6.18-1.09c-9-4-19.92-9.27-19.92-9.27-6.38-3.07-11.8-5.23-18.85-4h0s3.15,3.32,4.24,4.49a91.67,91.67,0,0,1,9.33,12.18c2,3.12,4.7,7.61,4.7,7.61L155.86,366c-3.36,1.21-10.26,3.41-15.32,4.65A96.15,96.15,0,0,1,119,373.2a181.63,181.63,0,0,1-26.69-1.93s10.3,3.18,14.18,4.31c2.6.75,20.61,5.88,37.5,5.55a146,146,0,0,0,16.37-1.41l3.57-.59c1.57-8.69-2.9,17.5-5.37,25.92l-1.77,6s5.74-4.67,8.15-6.81c6.67-5.92,11.44-13.55,21-28.82l2.91-4.67h0l3.78-2.3c5.1-3.09,16.43-8.2,19.31-10.11l.07,0a2.65,2.65,0,0,0,.21-.17A7.48,7.48,0,0,0,214,354.58Z" transform="translate(-92.35 -334.02)"/><rect class="cls-2" x="406.99" width="102.79" height="73.19"/><text class="cls-3" transform="translate(128.3 53.11) scale(0.91 1)"><tspan class="cls-4">Whe</tspan><tspan class="cls-5" x="123.23" y="0">r</tspan><tspan class="cls-4" x="144.7" y="0">e</tspan><tspan class="cls-6" x="177.92" y="0">’</tspan><tspan class="cls-4" x="189.73" y="0">s </tspan><tspan class="cls-7" x="235.86" y="0">Y</tspan><tspan class="cls-8" x="268.04" y="0">a</tspan><tspan class="cls-9" x="301.26" y="0"> </tspan></text><text class="cls-10" transform="translate(415.09 57.08) scale(0.91 1)">Boi</text></svg>